<svg width="171" height="18" viewBox="0 0 171 18" fill="none" xmlns="http://www.w3.org/2000/svg">
<path d="M1.32102 14V3.09091H5.13494C5.89489 3.09091 6.52166 3.2223 7.01527 3.48509C7.50888 3.74432 7.87642 4.0941 8.1179 4.53445C8.35938 4.97124 8.48011 5.45597 8.48011 5.98864C8.48011 6.45739 8.39666 6.84446 8.22976 7.14986C8.06641 7.45526 7.84979 7.69673 7.5799 7.87429C7.31357 8.05185 7.02415 8.18324 6.71165 8.26847V8.375C7.04545 8.39631 7.38104 8.51349 7.7184 8.72656C8.05575 8.93963 8.33807 9.24503 8.56534 9.64276C8.79261 10.0405 8.90625 10.527 8.90625 11.1023C8.90625 11.6491 8.78196 12.141 8.53338 12.5778C8.2848 13.0146 7.8924 13.3608 7.35618 13.6165C6.81996 13.8722 6.12216 14 5.26278 14H1.32102ZM2.64205 12.8281H5.26278C6.12571 12.8281 6.73828 12.6612 7.1005 12.3274C7.46626 11.9901 7.64915 11.5817 7.64915 11.1023C7.64915 10.733 7.55504 10.392 7.36683 10.0795C7.17862 9.76349 6.91051 9.51136 6.5625 9.32315C6.21449 9.13139 5.80256 9.03551 5.3267 9.03551H2.64205V12.8281ZM2.64205 7.88494H5.09233C5.49006 7.88494 5.84872 7.80682 6.16832 7.65057C6.49148 7.49432 6.74716 7.27415 6.93537 6.99006C7.12713 6.70597 7.22301 6.37216 7.22301 5.98864C7.22301 5.50923 7.05611 5.10263 6.7223 4.76882C6.38849 4.43146 5.85938 4.26278 5.13494 4.26278H2.64205V7.88494ZM11.7161 17.0682C11.503 17.0682 11.313 17.0504 11.1461 17.0149C10.9792 16.983 10.8638 16.951 10.7999 16.919L11.1195 15.8111C11.4249 15.8892 11.6948 15.9176 11.9292 15.8963C12.1635 15.875 12.3713 15.7702 12.5524 15.582C12.737 15.3974 12.9057 15.0973 13.0584 14.6818L13.2928 14.0426L10.2672 5.81818H11.6309L13.8894 12.3381H13.9746L16.2331 5.81818H17.5968L14.1238 15.1932C13.9675 15.6158 13.774 15.9656 13.5431 16.2425C13.3123 16.5231 13.0442 16.7308 12.7388 16.8658C12.437 17.0007 12.0961 17.0682 11.7161 17.0682Z" fill="#FCF7F8"/>
<path d="M29 14.1787V6.59928C28.9981 6.26248 29.0574 5.92815 29.1749 5.61252C29.2889 5.30663 29.4699 5.03008 29.7045 4.80311C29.962 4.56134 30.2676 4.37662 30.6014 4.26101C31.0145 4.12012 31.449 4.05249 31.8854 4.06116H40.8787V5.74741H31.8854C31.7264 5.7384 31.5672 5.76115 31.4171 5.81434C31.2669 5.86752 31.1289 5.95007 31.011 6.05718C30.8965 6.1841 30.8093 6.33318 30.7547 6.49518C30.7002 6.65718 30.6794 6.82865 30.6938 6.99899V8.28552H40.8737V9.97177H30.7263V14.1787H29Z" fill="#00DCE6"/>
<path d="M62.3952 14.1788H60.3967L56.1348 6.08228L51.858 14.1788H49.897L54.2737 5.76501C54.6218 5.09884 54.9549 4.65333 55.273 4.42849C55.4919 4.24365 55.7604 4.12725 56.0449 4.09375H56.2947C56.4093 4.09776 56.5223 4.12055 56.6295 4.1612C56.7773 4.21988 56.9135 4.30448 57.0317 4.41102C57.2042 4.56816 57.3615 4.7413 57.5013 4.92812C57.6964 5.18941 57.8701 5.46594 58.021 5.75502L62.3952 14.1788Z" fill="#00DCE6"/>
<path d="M75.0559 4.97797L82.6377 11.8254V4.06116H84.334V13.1444C84.334 13.8339 84.0483 14.1787 83.4771 14.1787H83.0924C82.9171 14.1534 82.7479 14.0967 82.5928 14.0113C82.3815 13.8947 82.1802 13.761 81.9907 13.6116L74.1615 6.51434V14.1787H72.4678V5.08041C72.4678 4.40091 72.7476 4.06116 73.3071 4.06116H73.5919C73.8103 4.1199 74.0189 4.20994 74.2115 4.32846C74.5169 4.51193 74.8002 4.72986 75.0559 4.97797Z" fill="#00DCE6"/>
<path d="M106.5 4.06116V5.74741H101.419V14.1787H99.7252V5.74741H94.6465V4.06116H106.5Z" fill="#00DCE6"/>
<path d="M126.937 14.1788H124.939L120.677 6.08228L116.405 14.1788H114.442L118.818 5.76501C119.166 5.09884 119.5 4.65333 119.818 4.42849C120.037 4.24403 120.305 4.12768 120.59 4.09375H120.839C120.955 4.09775 121.069 4.12054 121.177 4.1612C121.324 4.22 121.459 4.3046 121.576 4.41102C121.75 4.56739 121.909 4.74059 122.049 4.92812C122.243 5.18952 122.416 5.46605 122.566 5.75502L126.937 14.1788Z" fill="#00DCE6"/>
<path d="M138.696 6.98403V9.93934H137V6.59931C136.988 6.24337 137.061 5.88972 137.213 5.56745C137.364 5.24518 137.59 4.96352 137.872 4.74569C138.539 4.26247 139.35 4.02103 140.173 4.0612H148.856V5.74745H139.953C139.629 5.73743 139.313 5.8539 139.074 6.0722C138.95 6.18941 138.853 6.3311 138.788 6.48815C138.723 6.6452 138.692 6.81413 138.696 6.98403ZM147.165 11.2584V8.30305H148.856V11.6406C148.869 11.9969 148.796 12.3511 148.644 12.6736C148.492 12.9961 148.265 13.2775 147.982 13.4942C147.317 13.9774 146.507 14.2189 145.686 14.1787H137V12.4924H145.908C146.232 12.5009 146.547 12.3846 146.788 12.1677C146.911 12.0512 147.009 11.91 147.074 11.7533C147.139 11.5966 147.17 11.4279 147.165 11.2584Z" fill="#00DCE6"/>
<path d="M168.342 14.1787L165.389 11.0235L166.563 9.80439L170.655 14.1787H168.342ZM165.641 9.4022L161.229 14.1787H158.924L163.957 8.7352V4.06116H165.651L165.641 9.4022Z" fill="#00DCE6"/>
</svg>
