<svg width="176" height="26" viewBox="0 0 176 26" fill="none" xmlns="http://www.w3.org/2000/svg">
<path d="M15.8505 21.4475L17.459 23.0307L31.1992 15.5874L17.3844 0L15.4285 1.91965L27.6451 13.1366L15.8505 21.4475Z" fill="#FCF7F8"/>
<path d="M15.3487 4.54998L13.7402 2.96924L0 10.4126L13.8148 26L15.7681 24.0778L3.5515 12.8634L15.3487 4.54998Z" fill="#FCF7F8"/>
<path d="M14.87 20.0084L13.6913 19.8693L14.7799 7.0337L17.8476 6.61133L14.87 20.0084Z" fill="#FCF7F8"/>
<path d="M48.1176 17.8838L45.1658 13.8624H41.3338V17.8838H40.0187V8.11353H45.9842C48.061 8.11353 49.2294 9.14797 49.2294 10.9867C49.2294 12.5978 48.3235 13.5892 46.6996 13.8194L49.7132 17.8838H48.1176ZM41.3338 12.7394H45.7345C47.168 12.7394 47.8834 12.1653 47.8834 10.9867C47.8834 9.80808 47.168 9.23395 45.7345 9.23395H41.3338V12.7394Z" fill="#FCF7F8"/>
<path d="M59.714 15.3116H54.2607L53.0331 17.8838H51.6588L56.353 8.11353H57.6835L62.3828 17.8838H60.9493L59.714 15.3116ZM54.7883 14.1912H59.189L56.9964 9.52228L54.7883 14.1912Z" fill="#FCF7F8"/>
<path d="M66.3976 9.23406V12.4537H72.8032V13.5741H66.3976V17.8738H65.0825V8.10352H73.7528V9.22395L66.3976 9.23406Z" fill="#FCF7F8"/>
<path d="M83.0973 15.3116H77.644L76.4164 17.8838H75.0421L79.7337 8.11353H81.0642L85.7584 17.8838H84.3249L83.0973 15.3116ZM78.169 14.1912H82.5723L80.3771 9.52228L78.169 14.1912Z" fill="#FCF7F8"/>
<path d="M89.7809 9.23406V12.3804H96.1865V13.5033H89.7809V16.7533H97.1258V17.8738H88.4658V8.10352H97.1258V9.22395L89.7809 9.23406Z" fill="#FCF7F8"/>
<path d="M108.382 16.7533V17.8738H100.003V8.10352H101.318V16.7533H108.382Z" fill="#FCF7F8"/>
<path d="M125.52 8.11353V17.8838H124.277L117.506 9.43629V17.8838H116.234V8.11353H118.036L124.236 15.8452V8.11353H125.52Z" fill="#FCF7F8"/>
<path d="M129.058 8.11353H130.376V17.8838H129.058V8.11353Z" fill="#FCF7F8"/>
<path d="M142.294 16.7533V17.8738H133.927V8.10352H135.243V16.7533H142.294Z" fill="#FCF7F8"/>
<path d="M151.024 9.23395H147.032V17.8838H145.714V9.23395H141.723V8.11353H151.024V9.23395Z" fill="#FCF7F8"/>
<path d="M152.851 13C152.851 9.965 155.015 7.94165 158.276 7.94165C161.537 7.94165 163.701 9.965 163.701 13C163.701 16.035 161.537 18.0584 158.276 18.0584C155.015 18.0584 152.851 16.03 152.851 13ZM162.358 13C162.358 10.658 160.718 9.12025 158.276 9.12025C155.834 9.12025 154.197 10.658 154.197 13C154.197 15.342 155.834 16.8798 158.276 16.8798C160.718 16.8798 162.358 15.342 162.358 13Z" fill="#FCF7F8"/>
<path d="M176 8.11353V17.8838H174.757L167.988 9.43629V17.8838H166.702V8.11353H168.516L174.716 15.8452V8.11353H176Z" fill="#FCF7F8"/>
</svg>
