<svg width="479" height="355" viewBox="0 0 479 355" fill="none" xmlns="http://www.w3.org/2000/svg">
<path d="M460.713 304.451C459.404 304.451 458.094 304.123 456.894 303.468L444.127 296.048C443.363 295.612 442.926 294.848 442.926 293.975C442.926 293.102 443.363 292.338 444.127 291.902L456.894 284.481C459.185 283.172 462.132 283.172 464.532 284.481L477.3 291.902C478.064 292.338 478.5 293.102 478.5 293.975C478.5 294.848 478.064 295.612 477.3 296.048L464.532 303.468C463.332 304.123 462.023 304.451 460.713 304.451ZM460.713 285.572C459.731 285.572 458.749 285.791 457.876 286.336L445.109 293.757C445 293.866 444.89 293.975 444.89 294.084C444.89 294.193 444.89 294.302 445.109 294.411L457.876 301.832C459.622 302.814 461.695 302.814 463.441 301.832L476.208 294.411C476.318 294.302 476.427 294.193 476.427 294.084C476.427 293.975 476.427 293.866 476.208 293.757L463.441 286.336C462.568 285.791 461.586 285.572 460.713 285.572Z" fill="url(#paint0_linear_74_437)"/>
<path d="M424.048 262.548C421.865 262.548 419.792 262.002 417.828 260.911L395.785 248.143C394.694 247.489 394.148 246.507 394.148 245.197C394.148 243.997 394.803 242.906 395.785 242.251L417.828 229.484C421.647 227.301 426.339 227.301 430.159 229.484L452.201 242.251C453.293 242.906 453.838 243.888 453.838 245.197C453.838 246.398 453.183 247.489 452.201 248.143L430.159 260.911C428.304 261.893 426.23 262.548 424.048 262.548ZM418.919 259.056C422.084 260.911 426.012 260.911 429.286 259.056L451.328 246.288C451.874 245.961 451.983 245.415 451.983 245.197C451.983 244.979 451.874 244.433 451.328 244.106L429.286 231.339C426.121 229.484 422.193 229.484 418.919 231.339L396.876 244.106C396.331 244.433 396.222 244.979 396.222 245.197C396.222 245.415 396.331 245.961 396.876 246.288L418.919 259.056Z" fill="url(#paint1_linear_74_437)"/>
<path d="M29.8994 282.517C27.717 282.517 25.6437 281.971 23.6795 280.88L1.63683 268.113C0.54561 267.458 0 266.476 0 265.166C0 263.966 0.654732 262.875 1.63683 262.22L23.6795 249.453C27.4988 247.27 32.191 247.27 36.0103 249.453L58.0529 262.22C59.1441 262.875 59.6897 263.857 59.6897 265.166C59.6897 266.367 59.035 267.458 58.0529 268.113L36.0103 280.88C34.1552 281.971 31.9728 282.517 29.8994 282.517ZM29.8994 249.998C28.1535 249.998 26.2984 250.435 24.7707 251.417L2.72805 264.184C2.18244 264.512 2.07332 265.057 2.07332 265.276C2.07332 265.494 2.18244 266.039 2.72805 266.367L24.7707 279.134C27.9352 280.989 31.8636 280.989 35.1373 279.134L57.1799 266.367C57.7255 266.039 57.8347 265.494 57.8347 265.276C57.8347 265.057 57.7255 264.512 57.1799 264.184L35.1373 251.417C33.3913 250.435 31.6454 249.998 29.8994 249.998Z" fill="url(#paint2_linear_74_437)"/>
<path opacity="0.6" d="M253.054 338.06L95.4819 247.052C93.1903 245.743 93.5177 243.451 96.1366 241.924L197.293 183.543C199.912 182.016 203.949 181.797 206.241 183.216L363.813 274.224C366.105 275.533 365.777 277.825 363.158 279.352L262.002 337.733C259.383 339.151 255.346 339.369 253.054 338.06Z" fill="#020230"/>
<path d="M256.655 354.428C254.8 354.428 253.054 353.992 251.745 353.228L71.8026 249.453C70.384 248.58 69.511 247.38 69.511 245.961C69.511 244.433 70.6022 242.797 72.5664 241.705L195.22 169.903C198.602 167.939 203.513 167.721 206.459 169.467L386.292 273.351C387.711 274.224 388.584 275.424 388.584 276.843C388.584 278.37 387.493 280.007 385.528 281.098L262.875 352.901C261.129 353.883 258.838 354.428 256.655 354.428ZM201.549 170.449C199.694 170.449 197.729 170.885 196.202 171.758L73.5485 243.56C72.2391 244.324 71.5843 245.197 71.5843 246.07C71.5843 246.834 72.239 247.38 72.8938 247.707L252.727 351.591C255.018 352.901 259.274 352.682 261.893 351.155L384.546 279.352C385.856 278.589 386.51 277.716 386.51 276.843C386.51 276.079 385.856 275.533 385.201 275.206L205.368 171.322C204.386 170.667 202.967 170.449 201.549 170.449Z" fill="url(#paint3_linear_74_437)"/>
<path d="M405.716 121.562L248.689 30.8816C247.598 30.2269 246.507 30.1178 245.525 30.4451L242.578 31.4272L243.561 31.6455C243.124 32.0819 242.797 32.7367 242.578 33.3914L207.114 148.733C206.241 151.571 207.55 155.062 209.951 156.481L366.978 247.161C367.305 247.38 367.741 247.489 368.178 247.598L367.741 248.471L370.469 247.489C371.561 247.052 372.543 246.07 372.979 244.543L408.553 129.31C409.426 126.472 408.226 122.981 405.716 121.562Z" fill="url(#paint4_radial_74_437)"/>
<path d="M361.412 251.417L206.459 161.937C204.167 160.628 200.239 160.737 197.511 162.265L97.337 220.099L93.9542 218.79L94.9363 223.482C95.0454 224.137 95.5911 224.901 96.464 225.337L252.945 315.799C255.237 317.109 259.165 317 261.893 315.472L362.285 257.528C363.486 256.764 364.249 255.891 364.468 255.018L365.45 250.435L361.412 251.417Z" fill="url(#paint5_radial_74_437)"/>
<path d="M253.054 311.762L95.4819 220.754C93.1903 219.444 93.5177 217.153 96.1366 215.625L197.293 157.245C199.912 155.717 203.949 155.499 206.241 156.918L363.813 247.925C366.105 249.235 365.777 251.526 363.158 253.054L262.002 311.434C259.383 312.853 255.346 313.071 253.054 311.762Z" fill="url(#paint6_radial_74_437)"/>
<path d="M363.158 251.745L262.002 310.125C259.383 311.653 255.346 311.871 253.054 310.452L95.482 219.445C94.7181 219.008 94.2816 218.463 94.0634 217.808C93.736 218.899 94.1725 219.881 95.482 220.645L253.054 311.653C255.346 312.962 259.383 312.853 262.002 311.325L363.158 252.945C364.904 251.963 365.559 250.544 365.232 249.453C365.013 250.217 364.359 251.09 363.158 251.745Z" fill="white"/>
<g opacity="0.4">
<path opacity="0.4" d="M170.667 206.023L165.32 202.967C164.884 202.749 164.993 202.312 165.429 201.985L171.758 198.384C172.304 198.057 172.959 198.057 173.395 198.275L178.742 201.33C179.179 201.549 179.069 201.985 178.633 202.312L172.304 205.913C171.867 206.132 171.104 206.241 170.667 206.023Z" fill="#06033E"/>
<path opacity="0.4" d="M178.851 210.715L173.504 207.659C173.068 207.441 173.177 207.005 173.613 206.677L179.942 203.076C180.488 202.749 181.143 202.749 181.579 202.967L186.926 206.023C187.363 206.241 187.254 206.677 186.817 207.005L180.488 210.606C180.052 210.933 179.288 210.933 178.851 210.715Z" fill="#06033E"/>
<path opacity="0.4" d="M187.035 215.407L181.688 212.352C181.252 212.133 181.361 211.697 181.798 211.37L188.127 207.769C188.672 207.441 189.327 207.441 189.763 207.659L195.11 210.715C195.547 210.933 195.438 211.37 195.001 211.697L188.672 215.298C188.236 215.625 187.472 215.734 187.035 215.407Z" fill="#06033E"/>
<path opacity="0.4" d="M198.493 211.588L193.146 208.532C192.71 208.314 192.819 207.878 193.255 207.55L198.493 204.495C199.039 204.167 199.693 204.168 200.13 204.386L205.477 207.441C205.913 207.659 205.804 208.096 205.368 208.423L200.13 211.479C199.584 211.806 198.821 211.806 198.493 211.588Z" fill="#06033E"/>
<path opacity="0.4" d="M206.677 216.28L201.33 213.225C200.894 213.007 201.003 212.57 201.439 212.243L206.677 209.187C207.223 208.86 207.878 208.86 208.314 209.078L213.661 212.134C214.098 212.352 213.989 212.788 213.552 213.116L208.314 216.171C207.878 216.498 207.114 216.498 206.677 216.28Z" fill="#06033E"/>
<path opacity="0.4" d="M214.862 221.081L209.515 218.026C209.078 217.808 209.187 217.371 209.624 217.044L214.862 213.988C215.407 213.661 216.062 213.661 216.498 213.879L221.845 216.935C222.282 217.153 222.173 217.589 221.736 217.917L216.498 220.972C216.062 221.19 215.298 221.3 214.862 221.081Z" fill="#06033E"/>
<path opacity="0.4" d="M223.046 225.774L217.699 222.718C217.262 222.5 217.371 222.064 217.808 221.736L223.046 218.681C223.591 218.353 224.246 218.353 224.682 218.572L230.029 221.627C230.466 221.845 230.357 222.282 229.92 222.609L224.682 225.665C224.246 225.992 223.482 225.992 223.046 225.774Z" fill="#06033E"/>
<path opacity="0.4" d="M231.339 230.466L225.992 227.41C225.555 227.192 225.665 226.756 226.101 226.428L231.339 223.373C231.885 223.046 232.539 223.046 232.976 223.264L238.323 226.319C238.759 226.537 238.65 226.974 238.214 227.301L232.976 230.357C232.539 230.684 231.775 230.793 231.339 230.466Z" fill="#06033E"/>
<path opacity="0.4" d="M239.523 235.267L234.176 232.212C233.74 231.994 233.849 231.557 234.285 231.23L239.523 228.174C240.069 227.847 240.723 227.847 241.16 228.065L246.507 231.121C246.943 231.339 246.834 231.775 246.398 232.103L241.16 235.158C240.723 235.485 239.96 235.485 239.523 235.267Z" fill="#06033E"/>
<path opacity="0.4" d="M247.707 239.959L242.36 236.904C241.924 236.686 242.033 236.249 242.469 235.922L247.707 232.866C248.253 232.539 248.907 232.539 249.344 232.757L254.691 235.813C255.127 236.031 255.018 236.467 254.582 236.795L249.344 239.85C248.907 240.178 248.144 240.287 247.707 239.959Z" fill="#06033E"/>
<path opacity="0.4" d="M256 244.761L250.653 241.705C250.217 241.487 250.326 241.051 250.763 240.723L256 237.668C256.546 237.341 257.201 237.341 257.637 237.559L262.984 240.614C263.421 240.833 263.312 241.269 262.875 241.596L257.637 244.652C257.092 244.979 256.437 244.979 256 244.761Z" fill="#06033E"/>
<path opacity="0.4" d="M264.185 249.453L258.838 246.398C258.401 246.179 258.51 245.743 258.947 245.416L264.185 242.36C264.73 242.033 265.385 242.033 265.821 242.251L271.168 245.306C271.605 245.525 271.496 245.961 271.059 246.289L265.821 249.344C265.385 249.671 264.621 249.78 264.185 249.453Z" fill="#06033E"/>
<path opacity="0.4" d="M272.369 254.254L267.022 251.199C266.585 250.981 266.694 250.544 267.131 250.217L272.369 247.161C272.914 246.834 273.569 246.834 274.006 247.052L279.353 250.108C279.789 250.326 279.68 250.763 279.243 251.09L274.006 254.145C273.569 254.473 272.805 254.473 272.369 254.254Z" fill="#06033E"/>
<path opacity="0.4" d="M210.606 209.296L205.259 206.241C204.822 206.023 204.931 205.586 205.368 205.259L210.606 202.203C211.151 201.876 211.806 201.876 212.243 202.094L217.59 205.15C218.026 205.368 217.917 205.804 217.48 206.132L212.243 209.187C211.697 209.515 210.933 209.515 210.606 209.296Z" fill="#06033E"/>
<path opacity="0.4" d="M202.203 204.495L196.856 201.439C196.42 201.221 196.529 200.785 196.965 200.457L202.203 197.402C202.749 197.075 203.404 197.075 203.84 197.293L209.187 200.348C209.624 200.567 209.514 201.003 209.078 201.33L203.84 204.386C203.404 204.713 202.64 204.713 202.203 204.495Z" fill="#06033E"/>
<path opacity="0.4" d="M193.91 199.693L182.452 193.037C182.016 192.819 182.125 192.382 182.561 192.055L187.799 189C188.345 188.672 189 188.672 189.436 188.89L200.894 195.547C201.33 195.765 201.221 196.202 200.785 196.529L195.547 199.584C195.001 199.912 194.237 199.912 193.91 199.693Z" fill="#06033E"/>
<path opacity="0.4" d="M199.694 193.801L190.418 188.454C189.982 188.236 190.091 187.799 190.527 187.472L195.765 184.416C196.311 184.089 196.965 184.089 197.402 184.307L206.677 189.654C207.114 189.872 207.005 190.309 206.568 190.636L201.33 193.692C200.894 194.019 200.13 194.019 199.694 193.801Z" fill="#06033E"/>
<path opacity="0.4" d="M218.79 213.988L213.443 210.933C213.006 210.715 213.116 210.278 213.552 209.951L218.79 206.896C219.336 206.568 219.99 206.568 220.427 206.786L225.774 209.842C226.21 210.06 226.101 210.497 225.665 210.824L220.427 213.879C219.99 214.207 219.226 214.316 218.79 213.988Z" fill="#06033E"/>
<path opacity="0.4" d="M226.974 218.79L221.627 215.734C221.19 215.516 221.3 215.08 221.736 214.752L226.974 211.697C227.52 211.37 228.174 211.37 228.611 211.588L233.958 214.643C234.394 214.861 234.285 215.298 233.849 215.625L228.611 218.681C228.174 219.008 227.41 219.008 226.974 218.79Z" fill="#06033E"/>
<path opacity="0.4" d="M235.158 223.482L229.811 220.427C229.375 220.208 229.484 219.772 229.92 219.444L235.158 216.389C235.704 216.062 236.358 216.062 236.795 216.28L242.142 219.335C242.578 219.554 242.469 219.99 242.033 220.317L236.795 223.373C236.358 223.7 235.595 223.809 235.158 223.482Z" fill="#06033E"/>
<path opacity="0.4" d="M243.451 228.283L238.104 225.228C237.668 225.01 237.777 224.573 238.214 224.246L243.451 221.191C243.997 220.863 244.652 220.863 245.088 221.081L250.435 224.137C250.872 224.355 250.763 224.792 250.326 225.119L245.088 228.174C244.543 228.502 243.888 228.502 243.451 228.283Z" fill="#06033E"/>
<path opacity="0.4" d="M251.635 232.976L246.288 229.92C245.852 229.702 245.961 229.265 246.398 228.938L251.635 225.883C252.181 225.555 252.836 225.555 253.272 225.774L258.619 228.829C259.056 229.047 258.947 229.484 258.51 229.811L253.272 232.866C252.836 233.194 252.072 233.303 251.635 232.976Z" fill="#06033E"/>
<path opacity="0.4" d="M259.82 237.777L254.473 234.722C254.036 234.503 254.145 234.067 254.582 233.739L259.82 230.684C260.365 230.357 261.02 230.357 261.456 230.575L266.803 233.63C267.24 233.849 267.131 234.285 266.694 234.612L261.456 237.668C261.02 237.995 260.256 237.995 259.82 237.777Z" fill="#06033E"/>
<path opacity="0.4" d="M268.113 242.469L262.766 239.414C262.33 239.196 262.439 238.759 262.875 238.432L268.113 235.376C268.659 235.049 269.313 235.049 269.75 235.267L275.097 238.323C275.533 238.541 275.424 238.977 274.988 239.305L269.75 242.36C269.204 242.688 268.549 242.797 268.113 242.469Z" fill="#06033E"/>
<path opacity="0.4" d="M276.297 247.271L270.95 244.215C270.514 243.997 270.623 243.561 271.059 243.233L276.297 240.178C276.843 239.85 277.497 239.85 277.934 240.069L283.281 243.124C283.717 243.342 283.608 243.779 283.172 244.106L277.934 247.162C277.497 247.489 276.734 247.489 276.297 247.271Z" fill="#06033E"/>
<path opacity="0.4" d="M284.481 251.963L279.134 248.908C278.698 248.689 278.807 248.253 279.244 247.925L284.481 244.87C285.027 244.543 285.682 244.543 286.118 244.761L291.465 247.816C291.902 248.035 291.793 248.471 291.356 248.798L286.118 251.854C285.682 252.181 284.918 252.29 284.481 251.963Z" fill="#06033E"/>
<path opacity="0.4" d="M299.104 260.474L287.537 253.818C287.1 253.6 287.209 253.163 287.646 252.836L292.884 249.781C293.429 249.453 294.084 249.453 294.521 249.671L306.088 256.328C306.524 256.546 306.415 256.983 305.978 257.31L300.741 260.365C300.304 260.693 299.54 260.693 299.104 260.474Z" fill="#06033E"/>
<path opacity="0.4" d="M315.145 251.199L305.324 245.525C304.887 245.306 304.996 244.87 305.433 244.543L310.671 241.487C311.216 241.16 311.871 241.16 312.307 241.378L322.128 247.052C322.565 247.271 322.456 247.707 322.019 248.034L316.781 251.09C316.236 251.417 315.581 251.417 315.145 251.199Z" fill="#06033E"/>
<path opacity="0.4" d="M233.194 213.115L227.847 210.06C227.411 209.842 227.52 209.405 227.956 209.078L233.194 206.022C233.74 205.695 234.394 205.695 234.831 205.913L240.178 208.969C240.614 209.187 240.505 209.623 240.069 209.951L234.831 213.006C234.285 213.334 233.631 213.334 233.194 213.115Z" fill="#06033E"/>
<path opacity="0.4" d="M224.791 208.205L219.444 205.15C219.008 204.931 219.117 204.495 219.554 204.167L224.791 201.112C225.337 200.785 225.992 200.785 226.428 201.003L231.775 204.058C232.212 204.277 232.103 204.713 231.666 205.04L226.428 208.096C225.883 208.423 225.119 208.532 224.791 208.205Z" fill="#06033E"/>
<path opacity="0.4" d="M216.28 203.404L210.933 200.348C210.497 200.13 210.606 199.693 211.042 199.366L216.28 196.311C216.826 195.983 217.48 195.983 217.917 196.202L223.264 199.257C223.7 199.475 223.591 199.912 223.155 200.239L217.917 203.294C217.48 203.622 216.717 203.622 216.28 203.404Z" fill="#06033E"/>
<path opacity="0.4" d="M207.878 198.493L202.531 195.438C202.094 195.22 202.203 194.783 202.64 194.456L207.878 191.4C208.423 191.073 209.078 191.073 209.515 191.291L214.861 194.347C215.298 194.565 215.189 195.001 214.752 195.329L209.515 198.384C209.078 198.711 208.314 198.821 207.878 198.493Z" fill="#06033E"/>
<path opacity="0.4" d="M241.378 217.808L236.031 214.752C235.595 214.534 235.704 214.097 236.14 213.77L241.378 210.715C241.924 210.387 242.578 210.387 243.015 210.606L248.362 213.661C248.798 213.879 248.689 214.316 248.253 214.643L243.015 217.699C242.578 218.026 241.815 218.135 241.378 217.808Z" fill="#06033E"/>
<path opacity="0.4" d="M249.562 222.609L244.215 219.554C243.779 219.335 243.888 218.899 244.324 218.572L249.562 215.516C250.108 215.189 250.763 215.189 251.199 215.407L256.546 218.462C256.983 218.681 256.874 219.117 256.437 219.445L251.199 222.5C250.763 222.827 249.999 222.827 249.562 222.609Z" fill="#06033E"/>
<path opacity="0.4" d="M257.856 227.301L252.509 224.246C252.072 224.028 252.181 223.591 252.618 223.264L257.856 220.208C258.401 219.881 259.056 219.881 259.492 220.099L264.839 223.155C265.276 223.373 265.167 223.81 264.73 224.137L259.492 227.192C258.947 227.52 258.292 227.629 257.856 227.301Z" fill="#06033E"/>
<path opacity="0.4" d="M266.04 232.103L260.693 229.047C260.256 228.829 260.365 228.393 260.802 228.065L266.04 225.01C266.585 224.683 267.24 224.683 267.677 224.901L273.024 227.956C273.46 228.174 273.351 228.611 272.914 228.938L267.677 231.994C267.24 232.321 266.476 232.321 266.04 232.103Z" fill="#06033E"/>
<path opacity="0.4" d="M274.224 236.795L268.877 233.74C268.44 233.521 268.55 233.085 268.986 232.757L274.224 229.702C274.769 229.375 275.424 229.375 275.861 229.593L281.208 232.648C281.644 232.867 281.535 233.303 281.099 233.63L275.861 236.686C275.424 237.013 274.66 237.122 274.224 236.795Z" fill="#06033E"/>
<path opacity="0.4" d="M282.517 241.596L277.17 238.541C276.734 238.323 276.843 237.886 277.279 237.559L282.517 234.503C283.063 234.176 283.718 234.176 284.154 234.394L289.501 237.45C289.937 237.668 289.828 238.104 289.392 238.432L284.154 241.487C283.608 241.815 282.845 241.815 282.517 241.596Z" fill="#06033E"/>
<path opacity="0.4" d="M290.701 246.289L285.354 243.233C284.918 243.015 285.027 242.578 285.463 242.251L290.701 239.196C291.247 238.868 291.902 238.868 292.338 239.087L297.685 242.142C298.122 242.36 298.012 242.797 297.576 243.124L292.338 246.179C291.902 246.507 291.138 246.616 290.701 246.289Z" fill="#06033E"/>
<path opacity="0.4" d="M298.885 251.09L293.538 248.034C293.102 247.816 293.211 247.38 293.647 247.052L298.885 243.997C299.431 243.669 300.086 243.669 300.522 243.888L305.869 246.943C306.306 247.161 306.197 247.598 305.76 247.925L300.522 250.981C300.086 251.308 299.322 251.308 298.885 251.09Z" fill="#06033E"/>
<path opacity="0.4" d="M307.07 255.782L301.723 252.727C301.286 252.508 301.395 252.072 301.832 251.745L307.07 248.689C307.615 248.362 308.27 248.362 308.706 248.58L314.053 251.636C314.49 251.854 314.381 252.29 313.944 252.618L308.706 255.673C308.27 256 307.506 256 307.07 255.782Z" fill="#06033E"/>
<path opacity="0.4" d="M228.829 201.33L223.482 198.275C223.046 198.057 223.155 197.62 223.591 197.293L228.829 194.237C229.375 193.91 230.03 193.91 230.466 194.128L235.813 197.184C236.249 197.402 236.14 197.838 235.704 198.166L230.466 201.221C230.03 201.548 229.266 201.658 228.829 201.33Z" fill="#06033E"/>
<path opacity="0.4" d="M220.645 196.638L215.298 193.583C214.862 193.364 214.971 192.928 215.407 192.6L220.645 189.545C221.191 189.218 221.845 189.218 222.282 189.436L227.629 192.491C228.065 192.71 227.956 193.146 227.52 193.473L222.282 196.529C221.845 196.856 221.081 196.856 220.645 196.638Z" fill="#06033E"/>
<path opacity="0.4" d="M212.461 191.946L207.114 188.89C206.677 188.672 206.786 188.236 207.223 187.908L212.461 184.853C213.006 184.526 213.661 184.526 214.098 184.744L219.445 187.799C219.881 188.017 219.772 188.454 219.335 188.781L214.098 191.837C213.661 192.164 212.897 192.164 212.461 191.946Z" fill="#06033E"/>
<path opacity="0.4" d="M204.277 187.253L198.93 184.198C198.493 183.98 198.602 183.543 199.039 183.216L204.277 180.161C204.822 179.833 205.477 179.833 205.914 180.051L211.26 183.107C211.697 183.325 211.588 183.762 211.151 184.089L206.023 187.144C205.477 187.472 204.713 187.472 204.277 187.253Z" fill="#06033E"/>
<path opacity="0.4" d="M212.679 182.343L207.332 179.288C206.896 179.069 207.005 178.633 207.441 178.306L209.187 177.323C209.733 176.996 210.387 176.996 210.824 177.214L216.171 180.27C216.607 180.488 216.498 180.925 216.062 181.252L214.316 182.234C213.879 182.561 213.116 182.561 212.679 182.343Z" fill="#06033E"/>
<path opacity="0.4" d="M223.373 188.563L218.026 185.508C217.59 185.289 217.699 184.853 218.135 184.526L219.881 183.543C220.427 183.216 221.081 183.216 221.518 183.434L226.865 186.49C227.301 186.708 227.192 187.144 226.756 187.472L225.01 188.454C224.573 188.781 223.809 188.781 223.373 188.563Z" fill="#06033E"/>
<path opacity="0.4" d="M231.557 193.255L226.21 190.2C225.774 189.982 225.883 189.545 226.319 189.218L228.065 188.236C228.611 187.908 229.266 187.908 229.702 188.126L235.049 191.182C235.485 191.4 235.376 191.837 234.94 192.164L233.194 193.146C232.648 193.473 231.994 193.473 231.557 193.255Z" fill="#06033E"/>
<path opacity="0.4" d="M239.632 197.947L234.285 194.892C233.849 194.674 233.958 194.237 234.394 193.91L236.14 192.928C236.686 192.6 237.34 192.6 237.777 192.819L243.124 195.874C243.56 196.092 243.451 196.529 243.015 196.856L241.269 197.838C240.832 198.166 240.069 198.166 239.632 197.947Z" fill="#06033E"/>
<path opacity="0.4" d="M247.816 202.64L242.469 199.584C242.033 199.366 242.142 198.93 242.579 198.602L244.324 197.62C244.87 197.293 245.525 197.293 245.961 197.511L251.308 200.566C251.745 200.785 251.636 201.221 251.199 201.548L249.453 202.531C249.017 202.858 248.253 202.858 247.816 202.64Z" fill="#06033E"/>
<path opacity="0.4" d="M293.32 228.829L287.973 225.774C287.537 225.555 287.646 225.119 288.082 224.792L289.828 223.809C290.374 223.482 291.029 223.482 291.465 223.7L296.812 226.756C297.249 226.974 297.139 227.41 296.703 227.738L294.957 228.72C294.411 229.047 293.648 229.156 293.32 228.829Z" fill="#06033E"/>
<path opacity="0.4" d="M301.395 233.521L296.048 230.466C295.612 230.248 295.721 229.811 296.158 229.484L297.903 228.502C298.449 228.174 299.104 228.174 299.54 228.393L304.887 231.448C305.324 231.666 305.215 232.103 304.778 232.43L303.032 233.412C302.596 233.74 301.832 233.849 301.395 233.521Z" fill="#06033E"/>
<path opacity="0.4" d="M309.579 238.323L304.232 235.158C303.796 234.94 303.905 234.504 304.342 234.176L306.088 233.194C306.633 232.867 307.288 232.867 307.724 233.085L313.071 236.14C313.508 236.359 313.399 236.795 312.962 237.122L311.216 238.105C310.671 238.432 310.016 238.541 309.579 238.323Z" fill="#06033E"/>
<path opacity="0.4" d="M317.654 243.015L312.307 239.959C311.871 239.741 311.98 239.305 312.417 238.977L314.162 237.995C314.708 237.668 315.363 237.668 315.799 237.886L321.146 240.942C321.583 241.16 321.474 241.596 321.037 241.924L319.291 242.906C318.855 243.233 318.091 243.233 317.654 243.015Z" fill="#06033E"/>
<path opacity="0.4" d="M237.013 206.132L231.666 203.076C231.23 202.858 231.339 202.421 231.775 202.094L237.013 199.039C237.559 198.711 238.214 198.711 238.65 198.93L243.997 201.985C244.434 202.203 244.324 202.64 243.888 202.967L238.65 206.023C238.214 206.35 237.45 206.35 237.013 206.132Z" fill="#06033E"/>
<path opacity="0.4" d="M245.306 210.824L239.96 207.769C239.523 207.55 239.632 207.114 240.069 206.786L245.306 203.731C245.852 203.404 246.507 203.404 246.943 203.622L252.29 206.677C252.727 206.896 252.618 207.332 252.181 207.659L246.943 210.715C246.398 211.042 245.743 211.151 245.306 210.824Z" fill="#06033E"/>
<path opacity="0.4" d="M253.491 215.625L248.144 212.57C247.707 212.351 247.816 211.915 248.253 211.588L253.491 208.532C254.036 208.205 254.691 208.205 255.128 208.423L260.474 211.479C260.911 211.697 260.802 212.133 260.365 212.461L255.128 215.516C254.691 215.843 253.927 215.843 253.491 215.625Z" fill="#06033E"/>
<path opacity="0.4" d="M261.675 220.318L256.328 217.262C255.891 217.044 256 216.607 256.437 216.28L261.675 213.225C262.22 212.897 262.875 212.897 263.312 213.115L268.659 216.171C269.095 216.389 268.986 216.826 268.549 217.153L263.312 220.208C262.875 220.536 262.111 220.645 261.675 220.318Z" fill="#06033E"/>
<path opacity="0.4" d="M269.968 225.119L264.621 222.064C264.185 221.845 264.294 221.409 264.73 221.081L269.968 218.026C270.514 217.699 271.168 217.699 271.605 217.917L276.952 220.972C277.388 221.191 277.279 221.627 276.843 221.954L271.605 225.01C271.059 225.337 270.295 225.337 269.968 225.119Z" fill="#06033E"/>
<path opacity="0.4" d="M278.152 229.811L272.805 226.756C272.369 226.537 272.478 226.101 272.914 225.774L278.152 222.718C278.698 222.391 279.353 222.391 279.789 222.609L285.136 225.664C285.572 225.883 285.463 226.319 285.027 226.647L279.789 229.702C279.353 230.029 278.589 230.138 278.152 229.811Z" fill="#06033E"/>
<path opacity="0.4" d="M286.336 234.612L280.989 231.557C280.553 231.339 280.662 230.902 281.099 230.575L286.336 227.52C286.882 227.192 287.537 227.192 287.973 227.41L293.32 230.466C293.757 230.684 293.648 231.121 293.211 231.448L287.973 234.503C287.537 234.831 286.773 234.831 286.336 234.612Z" fill="#06033E"/>
<path opacity="0.4" d="M294.521 239.305L289.174 236.249C288.737 236.031 288.846 235.595 289.283 235.267L294.521 232.212C295.066 231.884 295.721 231.884 296.157 232.103L301.504 235.158C301.941 235.376 301.832 235.813 301.395 236.14L296.157 239.196C295.721 239.523 294.957 239.523 294.521 239.305Z" fill="#06033E"/>
<path opacity="0.4" d="M302.814 244.106L297.467 241.051C297.03 240.832 297.139 240.396 297.576 240.069L302.814 237.013C303.359 236.686 304.014 236.686 304.451 236.904L309.798 239.959C310.234 240.178 310.125 240.614 309.689 240.942L304.451 243.997C304.014 244.324 303.25 244.324 302.814 244.106Z" fill="#06033E"/>
<path opacity="0.4" d="M190.091 206.677L174.377 197.62C173.941 197.402 174.05 196.965 174.486 196.638L179.724 193.583C180.27 193.255 180.925 193.255 181.361 193.474L197.075 202.531C197.511 202.749 197.402 203.185 196.966 203.513L191.728 206.568C191.291 206.896 190.527 207.005 190.091 206.677Z" fill="#06033E"/>
<path opacity="0.4" d="M291.029 264.949L275.315 255.891C274.879 255.673 274.988 255.237 275.424 254.909L280.662 251.854C281.208 251.526 281.862 251.527 282.299 251.745L298.012 260.802C298.449 261.02 298.34 261.457 297.903 261.784L292.665 264.839C292.229 265.167 291.465 265.276 291.029 264.949Z" fill="#06033E"/>
<path opacity="0.4" d="M258.183 256.546L252.836 253.491C252.399 253.272 252.509 252.836 252.945 252.508L259.274 248.907C259.82 248.58 260.475 248.58 260.911 248.798L266.258 251.854C266.694 252.072 266.585 252.509 266.149 252.836L259.82 256.437C259.383 256.764 258.619 256.764 258.183 256.546Z" fill="#06033E"/>
<path opacity="0.4" d="M198.493 222.064L189.982 217.153C189.545 216.935 189.654 216.498 190.091 216.171L196.42 212.57C196.965 212.243 197.62 212.243 198.057 212.461L206.568 217.371C207.005 217.59 206.896 218.026 206.459 218.353L200.13 221.954C199.693 222.282 198.93 222.282 198.493 222.064Z" fill="#06033E"/>
<path opacity="0.4" d="M250.217 251.963L241.705 247.052C241.269 246.834 241.378 246.398 241.815 246.07L248.144 242.469C248.689 242.142 249.344 242.142 249.781 242.36L258.292 247.271C258.729 247.489 258.619 247.925 258.183 248.253L251.854 251.854C251.417 252.181 250.653 252.181 250.217 251.963Z" fill="#06033E"/>
<path opacity="0.4" d="M210.387 228.938L201.876 224.028C201.439 223.809 201.549 223.373 201.985 223.045L208.314 219.444C208.86 219.117 209.514 219.117 209.951 219.335L218.462 224.246C218.899 224.464 218.79 224.901 218.353 225.228L212.024 228.829C211.479 229.156 210.824 229.156 210.387 228.938Z" fill="#06033E"/>
<path opacity="0.4" d="M209.951 219.335L246.943 240.723C247.38 240.941 247.38 241.378 246.943 241.705L240.505 245.415C240.069 245.634 239.305 245.634 238.868 245.415L201.876 224.028L209.951 219.335Z" fill="#06033E"/>
<path opacity="0.4" d="M281.098 265.058L286.991 268.44C287.318 268.659 287.318 268.986 286.882 269.204L284.263 270.732C283.827 270.95 283.281 270.95 282.844 270.841L276.952 267.458C276.624 267.24 276.624 266.913 277.061 266.694L279.68 265.167C280.116 264.949 280.771 264.949 281.098 265.058Z" fill="#06033E"/>
<path opacity="0.4" d="M272.805 260.365L278.698 263.748C279.025 263.966 279.025 264.294 278.589 264.512L275.97 266.04C275.533 266.258 274.988 266.258 274.551 266.149L268.659 262.766C268.331 262.548 268.331 262.22 268.768 262.002L271.387 260.474C271.932 260.147 272.478 260.147 272.805 260.365Z" fill="#06033E"/>
<path opacity="0.4" d="M264.621 255.564L270.514 258.947C270.841 259.165 270.841 259.492 270.405 259.711L267.786 261.238C267.349 261.457 266.804 261.457 266.367 261.347L260.474 257.965C260.147 257.746 260.147 257.419 260.584 257.201L263.202 255.673C263.639 255.346 264.294 255.346 264.621 255.564Z" fill="#06033E"/>
<path opacity="0.4" d="M277.388 257.746L283.281 261.129C283.608 261.347 283.608 261.675 283.172 261.893L280.553 263.421C280.116 263.639 279.571 263.639 279.134 263.53L273.242 260.147C272.914 259.929 272.914 259.602 273.351 259.383L275.97 257.856C276.406 257.528 277.061 257.528 277.388 257.746Z" fill="#06033E"/>
</g>
<g opacity="0.4">
<path opacity="0.4" d="M170.667 206.023L165.32 202.967C164.884 202.749 164.993 202.312 165.429 201.985L171.758 198.384C172.304 198.057 172.959 198.057 173.395 198.275L178.742 201.33C179.179 201.549 179.069 201.985 178.633 202.312L172.304 205.913C171.867 206.132 171.104 206.241 170.667 206.023Z" fill="#06033E"/>
<path opacity="0.4" d="M178.851 210.715L173.504 207.659C173.068 207.441 173.177 207.005 173.613 206.677L179.942 203.076C180.488 202.749 181.143 202.749 181.579 202.967L186.926 206.023C187.363 206.241 187.254 206.677 186.817 207.005L180.488 210.606C180.052 210.933 179.288 210.933 178.851 210.715Z" fill="#06033E"/>
<path opacity="0.4" d="M187.035 215.407L181.688 212.352C181.252 212.133 181.361 211.697 181.798 211.37L188.127 207.769C188.672 207.441 189.327 207.441 189.763 207.659L195.11 210.715C195.547 210.933 195.438 211.37 195.001 211.697L188.672 215.298C188.236 215.625 187.472 215.734 187.035 215.407Z" fill="#06033E"/>
<path opacity="0.4" d="M198.493 211.588L193.146 208.532C192.71 208.314 192.819 207.878 193.255 207.55L198.493 204.495C199.039 204.167 199.693 204.168 200.13 204.386L205.477 207.441C205.913 207.659 205.804 208.096 205.368 208.423L200.13 211.479C199.584 211.806 198.821 211.806 198.493 211.588Z" fill="#06033E"/>
<path opacity="0.4" d="M206.677 216.28L201.33 213.225C200.894 213.007 201.003 212.57 201.439 212.243L206.677 209.187C207.223 208.86 207.878 208.86 208.314 209.078L213.661 212.134C214.098 212.352 213.989 212.788 213.552 213.116L208.314 216.171C207.878 216.498 207.114 216.498 206.677 216.28Z" fill="#06033E"/>
<path opacity="0.4" d="M214.862 221.081L209.515 218.026C209.078 217.808 209.187 217.371 209.624 217.044L214.862 213.988C215.407 213.661 216.062 213.661 216.498 213.879L221.845 216.935C222.282 217.153 222.173 217.589 221.736 217.917L216.498 220.972C216.062 221.19 215.298 221.3 214.862 221.081Z" fill="#06033E"/>
<path opacity="0.4" d="M223.046 225.774L217.699 222.718C217.262 222.5 217.371 222.064 217.808 221.736L223.046 218.681C223.591 218.353 224.246 218.353 224.682 218.572L230.029 221.627C230.466 221.845 230.357 222.282 229.92 222.609L224.682 225.665C224.246 225.992 223.482 225.992 223.046 225.774Z" fill="#06033E"/>
<path opacity="0.4" d="M231.339 230.466L225.992 227.41C225.555 227.192 225.665 226.756 226.101 226.428L231.339 223.373C231.885 223.046 232.539 223.046 232.976 223.264L238.323 226.319C238.759 226.537 238.65 226.974 238.214 227.301L232.976 230.357C232.539 230.684 231.775 230.793 231.339 230.466Z" fill="#06033E"/>
<path opacity="0.4" d="M239.523 235.267L234.176 232.212C233.74 231.994 233.849 231.557 234.285 231.23L239.523 228.174C240.069 227.847 240.723 227.847 241.16 228.065L246.507 231.121C246.943 231.339 246.834 231.775 246.398 232.103L241.16 235.158C240.723 235.485 239.96 235.485 239.523 235.267Z" fill="#06033E"/>
<path opacity="0.4" d="M247.707 239.959L242.36 236.904C241.924 236.686 242.033 236.249 242.469 235.922L247.707 232.866C248.253 232.539 248.907 232.539 249.344 232.757L254.691 235.813C255.127 236.031 255.018 236.467 254.582 236.795L249.344 239.85C248.907 240.178 248.144 240.287 247.707 239.959Z" fill="#06033E"/>
<path opacity="0.4" d="M256 244.761L250.653 241.705C250.217 241.487 250.326 241.051 250.763 240.723L256 237.668C256.546 237.341 257.201 237.341 257.637 237.559L262.984 240.614C263.421 240.833 263.312 241.269 262.875 241.596L257.637 244.652C257.092 244.979 256.437 244.979 256 244.761Z" fill="#06033E"/>
<path opacity="0.4" d="M264.185 249.453L258.838 246.398C258.401 246.179 258.51 245.743 258.947 245.416L264.185 242.36C264.73 242.033 265.385 242.033 265.821 242.251L271.168 245.306C271.605 245.525 271.496 245.961 271.059 246.289L265.821 249.344C265.385 249.671 264.621 249.78 264.185 249.453Z" fill="#06033E"/>
<path opacity="0.4" d="M272.369 254.254L267.022 251.199C266.585 250.981 266.694 250.544 267.131 250.217L272.369 247.161C272.914 246.834 273.569 246.834 274.006 247.052L279.353 250.108C279.789 250.326 279.68 250.763 279.243 251.09L274.006 254.145C273.569 254.473 272.805 254.473 272.369 254.254Z" fill="#06033E"/>
<path opacity="0.4" d="M210.606 209.296L205.259 206.241C204.822 206.023 204.931 205.586 205.368 205.259L210.606 202.203C211.151 201.876 211.806 201.876 212.243 202.094L217.59 205.15C218.026 205.368 217.917 205.804 217.48 206.132L212.243 209.187C211.697 209.515 210.933 209.515 210.606 209.296Z" fill="#06033E"/>
<path opacity="0.4" d="M202.203 204.495L196.856 201.439C196.42 201.221 196.529 200.785 196.965 200.457L202.203 197.402C202.749 197.075 203.404 197.075 203.84 197.293L209.187 200.348C209.624 200.567 209.514 201.003 209.078 201.33L203.84 204.386C203.404 204.713 202.64 204.713 202.203 204.495Z" fill="#06033E"/>
<path opacity="0.4" d="M193.91 199.693L182.452 193.037C182.016 192.819 182.125 192.382 182.561 192.055L187.799 189C188.345 188.672 189 188.672 189.436 188.89L200.894 195.547C201.33 195.765 201.221 196.202 200.785 196.529L195.547 199.584C195.001 199.912 194.237 199.912 193.91 199.693Z" fill="#06033E"/>
<path opacity="0.4" d="M199.694 193.801L190.418 188.454C189.982 188.236 190.091 187.799 190.527 187.472L195.765 184.416C196.311 184.089 196.965 184.089 197.402 184.307L206.677 189.654C207.114 189.872 207.005 190.309 206.568 190.636L201.33 193.692C200.894 194.019 200.13 194.019 199.694 193.801Z" fill="#06033E"/>
<path opacity="0.4" d="M218.79 213.988L213.443 210.933C213.006 210.715 213.116 210.278 213.552 209.951L218.79 206.896C219.336 206.568 219.99 206.568 220.427 206.786L225.774 209.842C226.21 210.06 226.101 210.497 225.665 210.824L220.427 213.879C219.99 214.207 219.226 214.316 218.79 213.988Z" fill="#06033E"/>
<path opacity="0.4" d="M226.974 218.79L221.627 215.734C221.19 215.516 221.3 215.08 221.736 214.752L226.974 211.697C227.52 211.37 228.174 211.37 228.611 211.588L233.958 214.643C234.394 214.861 234.285 215.298 233.849 215.625L228.611 218.681C228.174 219.008 227.41 219.008 226.974 218.79Z" fill="#06033E"/>
<path opacity="0.4" d="M235.158 223.482L229.811 220.427C229.375 220.208 229.484 219.772 229.92 219.444L235.158 216.389C235.704 216.062 236.358 216.062 236.795 216.28L242.142 219.335C242.578 219.554 242.469 219.99 242.033 220.317L236.795 223.373C236.358 223.7 235.595 223.809 235.158 223.482Z" fill="#06033E"/>
<path opacity="0.4" d="M243.451 228.283L238.104 225.228C237.668 225.01 237.777 224.573 238.214 224.246L243.451 221.191C243.997 220.863 244.652 220.863 245.088 221.081L250.435 224.137C250.872 224.355 250.763 224.792 250.326 225.119L245.088 228.174C244.543 228.502 243.888 228.502 243.451 228.283Z" fill="#06033E"/>
<path opacity="0.4" d="M251.635 232.976L246.288 229.92C245.852 229.702 245.961 229.265 246.398 228.938L251.635 225.883C252.181 225.555 252.836 225.555 253.272 225.774L258.619 228.829C259.056 229.047 258.947 229.484 258.51 229.811L253.272 232.866C252.836 233.194 252.072 233.303 251.635 232.976Z" fill="#06033E"/>
<path opacity="0.4" d="M259.82 237.777L254.473 234.722C254.036 234.503 254.145 234.067 254.582 233.739L259.82 230.684C260.365 230.357 261.02 230.357 261.456 230.575L266.803 233.63C267.24 233.849 267.131 234.285 266.694 234.612L261.456 237.668C261.02 237.995 260.256 237.995 259.82 237.777Z" fill="#06033E"/>
<path opacity="0.4" d="M268.113 242.469L262.766 239.414C262.33 239.196 262.439 238.759 262.875 238.432L268.113 235.376C268.659 235.049 269.313 235.049 269.75 235.267L275.097 238.323C275.533 238.541 275.424 238.977 274.988 239.305L269.75 242.36C269.204 242.688 268.549 242.797 268.113 242.469Z" fill="#06033E"/>
<path opacity="0.4" d="M276.297 247.271L270.95 244.215C270.514 243.997 270.623 243.561 271.059 243.233L276.297 240.178C276.843 239.85 277.497 239.85 277.934 240.069L283.281 243.124C283.717 243.342 283.608 243.779 283.172 244.106L277.934 247.162C277.497 247.489 276.734 247.489 276.297 247.271Z" fill="#06033E"/>
<path opacity="0.4" d="M284.481 251.963L279.134 248.908C278.698 248.689 278.807 248.253 279.244 247.925L284.481 244.87C285.027 244.543 285.682 244.543 286.118 244.761L291.465 247.816C291.902 248.035 291.793 248.471 291.356 248.798L286.118 251.854C285.682 252.181 284.918 252.29 284.481 251.963Z" fill="#06033E"/>
<path opacity="0.4" d="M299.104 260.474L287.537 253.818C287.1 253.6 287.209 253.163 287.646 252.836L292.884 249.781C293.429 249.453 294.084 249.453 294.521 249.671L306.088 256.328C306.524 256.546 306.415 256.983 305.978 257.31L300.741 260.365C300.304 260.693 299.54 260.693 299.104 260.474Z" fill="#06033E"/>
<path opacity="0.4" d="M315.145 251.199L305.324 245.525C304.887 245.306 304.996 244.87 305.433 244.543L310.671 241.487C311.216 241.16 311.871 241.16 312.307 241.378L322.128 247.052C322.565 247.271 322.456 247.707 322.019 248.034L316.781 251.09C316.236 251.417 315.581 251.417 315.145 251.199Z" fill="#06033E"/>
<path opacity="0.4" d="M233.194 213.115L227.847 210.06C227.411 209.842 227.52 209.405 227.956 209.078L233.194 206.022C233.74 205.695 234.394 205.695 234.831 205.913L240.178 208.969C240.614 209.187 240.505 209.623 240.069 209.951L234.831 213.006C234.285 213.334 233.631 213.334 233.194 213.115Z" fill="#06033E"/>
<path opacity="0.4" d="M224.791 208.205L219.444 205.15C219.008 204.931 219.117 204.495 219.554 204.167L224.791 201.112C225.337 200.785 225.992 200.785 226.428 201.003L231.775 204.058C232.212 204.277 232.103 204.713 231.666 205.04L226.428 208.096C225.883 208.423 225.119 208.532 224.791 208.205Z" fill="#06033E"/>
<path opacity="0.4" d="M216.28 203.404L210.933 200.348C210.497 200.13 210.606 199.693 211.042 199.366L216.28 196.311C216.826 195.983 217.48 195.983 217.917 196.202L223.264 199.257C223.7 199.475 223.591 199.912 223.155 200.239L217.917 203.294C217.48 203.622 216.717 203.622 216.28 203.404Z" fill="#06033E"/>
<path opacity="0.4" d="M207.878 198.493L202.531 195.438C202.094 195.22 202.203 194.783 202.64 194.456L207.878 191.4C208.423 191.073 209.078 191.073 209.515 191.291L214.861 194.347C215.298 194.565 215.189 195.001 214.752 195.329L209.515 198.384C209.078 198.711 208.314 198.821 207.878 198.493Z" fill="#06033E"/>
<path opacity="0.4" d="M241.378 217.808L236.031 214.752C235.595 214.534 235.704 214.097 236.14 213.77L241.378 210.715C241.924 210.387 242.578 210.387 243.015 210.606L248.362 213.661C248.798 213.879 248.689 214.316 248.253 214.643L243.015 217.699C242.578 218.026 241.815 218.135 241.378 217.808Z" fill="#06033E"/>
<path opacity="0.4" d="M249.562 222.609L244.215 219.554C243.779 219.335 243.888 218.899 244.324 218.572L249.562 215.516C250.108 215.189 250.763 215.189 251.199 215.407L256.546 218.462C256.983 218.681 256.874 219.117 256.437 219.445L251.199 222.5C250.763 222.827 249.999 222.827 249.562 222.609Z" fill="#06033E"/>
<path opacity="0.4" d="M257.856 227.301L252.509 224.246C252.072 224.028 252.181 223.591 252.618 223.264L257.856 220.208C258.401 219.881 259.056 219.881 259.492 220.099L264.839 223.155C265.276 223.373 265.167 223.81 264.73 224.137L259.492 227.192C258.947 227.52 258.292 227.629 257.856 227.301Z" fill="#06033E"/>
<path opacity="0.4" d="M266.04 232.103L260.693 229.047C260.256 228.829 260.365 228.393 260.802 228.065L266.04 225.01C266.585 224.683 267.24 224.683 267.677 224.901L273.024 227.956C273.46 228.174 273.351 228.611 272.914 228.938L267.677 231.994C267.24 232.321 266.476 232.321 266.04 232.103Z" fill="#06033E"/>
<path opacity="0.4" d="M274.224 236.795L268.877 233.74C268.44 233.521 268.55 233.085 268.986 232.757L274.224 229.702C274.769 229.375 275.424 229.375 275.861 229.593L281.208 232.648C281.644 232.867 281.535 233.303 281.099 233.63L275.861 236.686C275.424 237.013 274.66 237.122 274.224 236.795Z" fill="#06033E"/>
<path opacity="0.4" d="M282.517 241.596L277.17 238.541C276.734 238.323 276.843 237.886 277.279 237.559L282.517 234.503C283.063 234.176 283.718 234.176 284.154 234.394L289.501 237.45C289.937 237.668 289.828 238.104 289.392 238.432L284.154 241.487C283.608 241.815 282.845 241.815 282.517 241.596Z" fill="#06033E"/>
<path opacity="0.4" d="M290.701 246.289L285.354 243.233C284.918 243.015 285.027 242.578 285.463 242.251L290.701 239.196C291.247 238.868 291.902 238.868 292.338 239.087L297.685 242.142C298.122 242.36 298.012 242.797 297.576 243.124L292.338 246.179C291.902 246.507 291.138 246.616 290.701 246.289Z" fill="#06033E"/>
<path opacity="0.4" d="M298.885 251.09L293.538 248.034C293.102 247.816 293.211 247.38 293.647 247.052L298.885 243.997C299.431 243.669 300.086 243.669 300.522 243.888L305.869 246.943C306.306 247.161 306.197 247.598 305.76 247.925L300.522 250.981C300.086 251.308 299.322 251.308 298.885 251.09Z" fill="#06033E"/>
<path opacity="0.4" d="M307.07 255.782L301.723 252.727C301.286 252.508 301.395 252.072 301.832 251.745L307.07 248.689C307.615 248.362 308.27 248.362 308.706 248.58L314.053 251.636C314.49 251.854 314.381 252.29 313.944 252.618L308.706 255.673C308.27 256 307.506 256 307.07 255.782Z" fill="#06033E"/>
<path opacity="0.4" d="M228.829 201.33L223.482 198.275C223.046 198.057 223.155 197.62 223.591 197.293L228.829 194.237C229.375 193.91 230.03 193.91 230.466 194.128L235.813 197.184C236.249 197.402 236.14 197.838 235.704 198.166L230.466 201.221C230.03 201.548 229.266 201.658 228.829 201.33Z" fill="#06033E"/>
<path opacity="0.4" d="M220.645 196.638L215.298 193.583C214.862 193.364 214.971 192.928 215.407 192.6L220.645 189.545C221.191 189.218 221.845 189.218 222.282 189.436L227.629 192.491C228.065 192.71 227.956 193.146 227.52 193.473L222.282 196.529C221.845 196.856 221.081 196.856 220.645 196.638Z" fill="#06033E"/>
<path opacity="0.4" d="M212.461 191.946L207.114 188.89C206.677 188.672 206.786 188.236 207.223 187.908L212.461 184.853C213.006 184.526 213.661 184.526 214.098 184.744L219.445 187.799C219.881 188.017 219.772 188.454 219.335 188.781L214.098 191.837C213.661 192.164 212.897 192.164 212.461 191.946Z" fill="#06033E"/>
<path opacity="0.4" d="M204.277 187.253L198.93 184.198C198.493 183.98 198.602 183.543 199.039 183.216L204.277 180.161C204.822 179.833 205.477 179.833 205.914 180.051L211.26 183.107C211.697 183.325 211.588 183.762 211.151 184.089L206.023 187.144C205.477 187.472 204.713 187.472 204.277 187.253Z" fill="#06033E"/>
<path opacity="0.4" d="M212.679 182.343L207.332 179.288C206.896 179.069 207.005 178.633 207.441 178.306L209.187 177.323C209.733 176.996 210.387 176.996 210.824 177.214L216.171 180.27C216.607 180.488 216.498 180.925 216.062 181.252L214.316 182.234C213.879 182.561 213.116 182.561 212.679 182.343Z" fill="#06033E"/>
<path opacity="0.4" d="M223.373 188.563L218.026 185.508C217.59 185.289 217.699 184.853 218.135 184.526L219.881 183.543C220.427 183.216 221.081 183.216 221.518 183.434L226.865 186.49C227.301 186.708 227.192 187.144 226.756 187.472L225.01 188.454C224.573 188.781 223.809 188.781 223.373 188.563Z" fill="#06033E"/>
<path opacity="0.4" d="M231.557 193.255L226.21 190.2C225.774 189.982 225.883 189.545 226.319 189.218L228.065 188.236C228.611 187.908 229.266 187.908 229.702 188.126L235.049 191.182C235.485 191.4 235.376 191.837 234.94 192.164L233.194 193.146C232.648 193.473 231.994 193.473 231.557 193.255Z" fill="#06033E"/>
<path opacity="0.4" d="M239.632 197.947L234.285 194.892C233.849 194.674 233.958 194.237 234.394 193.91L236.14 192.928C236.686 192.6 237.34 192.6 237.777 192.819L243.124 195.874C243.56 196.092 243.451 196.529 243.015 196.856L241.269 197.838C240.832 198.166 240.069 198.166 239.632 197.947Z" fill="#06033E"/>
<path opacity="0.4" d="M247.816 202.64L242.469 199.584C242.033 199.366 242.142 198.93 242.579 198.602L244.324 197.62C244.87 197.293 245.525 197.293 245.961 197.511L251.308 200.566C251.745 200.785 251.636 201.221 251.199 201.548L249.453 202.531C249.017 202.858 248.253 202.858 247.816 202.64Z" fill="#06033E"/>
<path opacity="0.4" d="M293.32 228.829L287.973 225.774C287.537 225.555 287.646 225.119 288.082 224.792L289.828 223.809C290.374 223.482 291.029 223.482 291.465 223.7L296.812 226.756C297.249 226.974 297.139 227.41 296.703 227.738L294.957 228.72C294.411 229.047 293.648 229.156 293.32 228.829Z" fill="#06033E"/>
<path opacity="0.4" d="M301.395 233.521L296.048 230.466C295.612 230.248 295.721 229.811 296.158 229.484L297.903 228.502C298.449 228.174 299.104 228.174 299.54 228.393L304.887 231.448C305.324 231.666 305.215 232.103 304.778 232.43L303.032 233.412C302.596 233.74 301.832 233.849 301.395 233.521Z" fill="#06033E"/>
<path opacity="0.4" d="M309.579 238.323L304.232 235.158C303.796 234.94 303.905 234.504 304.342 234.176L306.088 233.194C306.633 232.867 307.288 232.867 307.724 233.085L313.071 236.14C313.508 236.359 313.399 236.795 312.962 237.122L311.216 238.105C310.671 238.432 310.016 238.541 309.579 238.323Z" fill="#06033E"/>
<path opacity="0.4" d="M317.654 243.015L312.307 239.959C311.871 239.741 311.98 239.305 312.417 238.977L314.162 237.995C314.708 237.668 315.363 237.668 315.799 237.886L321.146 240.942C321.583 241.16 321.474 241.596 321.037 241.924L319.291 242.906C318.855 243.233 318.091 243.233 317.654 243.015Z" fill="#06033E"/>
<path opacity="0.4" d="M237.013 206.132L231.666 203.076C231.23 202.858 231.339 202.421 231.775 202.094L237.013 199.039C237.559 198.711 238.214 198.711 238.65 198.93L243.997 201.985C244.434 202.203 244.324 202.64 243.888 202.967L238.65 206.023C238.214 206.35 237.45 206.35 237.013 206.132Z" fill="#06033E"/>
<path opacity="0.4" d="M245.306 210.824L239.96 207.769C239.523 207.55 239.632 207.114 240.069 206.786L245.306 203.731C245.852 203.404 246.507 203.404 246.943 203.622L252.29 206.677C252.727 206.896 252.618 207.332 252.181 207.659L246.943 210.715C246.398 211.042 245.743 211.151 245.306 210.824Z" fill="#06033E"/>
<path opacity="0.4" d="M253.491 215.625L248.144 212.57C247.707 212.351 247.816 211.915 248.253 211.588L253.491 208.532C254.036 208.205 254.691 208.205 255.128 208.423L260.474 211.479C260.911 211.697 260.802 212.133 260.365 212.461L255.128 215.516C254.691 215.843 253.927 215.843 253.491 215.625Z" fill="#06033E"/>
<path opacity="0.4" d="M261.675 220.318L256.328 217.262C255.891 217.044 256 216.607 256.437 216.28L261.675 213.225C262.22 212.897 262.875 212.897 263.312 213.115L268.659 216.171C269.095 216.389 268.986 216.826 268.549 217.153L263.312 220.208C262.875 220.536 262.111 220.645 261.675 220.318Z" fill="#06033E"/>
<path opacity="0.4" d="M269.968 225.119L264.621 222.064C264.185 221.845 264.294 221.409 264.73 221.081L269.968 218.026C270.514 217.699 271.168 217.699 271.605 217.917L276.952 220.972C277.388 221.191 277.279 221.627 276.843 221.954L271.605 225.01C271.059 225.337 270.295 225.337 269.968 225.119Z" fill="#06033E"/>
<path opacity="0.4" d="M278.152 229.811L272.805 226.756C272.369 226.537 272.478 226.101 272.914 225.774L278.152 222.718C278.698 222.391 279.353 222.391 279.789 222.609L285.136 225.664C285.572 225.883 285.463 226.319 285.027 226.647L279.789 229.702C279.353 230.029 278.589 230.138 278.152 229.811Z" fill="#06033E"/>
<path opacity="0.4" d="M286.336 234.612L280.989 231.557C280.553 231.339 280.662 230.902 281.099 230.575L286.336 227.52C286.882 227.192 287.537 227.192 287.973 227.41L293.32 230.466C293.757 230.684 293.648 231.121 293.211 231.448L287.973 234.503C287.537 234.831 286.773 234.831 286.336 234.612Z" fill="#06033E"/>
<path opacity="0.4" d="M294.521 239.305L289.174 236.249C288.737 236.031 288.846 235.595 289.283 235.267L294.521 232.212C295.066 231.884 295.721 231.884 296.157 232.103L301.504 235.158C301.941 235.376 301.832 235.813 301.395 236.14L296.157 239.196C295.721 239.523 294.957 239.523 294.521 239.305Z" fill="#06033E"/>
<path opacity="0.4" d="M302.814 244.106L297.467 241.051C297.03 240.832 297.139 240.396 297.576 240.069L302.814 237.013C303.359 236.686 304.014 236.686 304.451 236.904L309.798 239.959C310.234 240.178 310.125 240.614 309.689 240.942L304.451 243.997C304.014 244.324 303.25 244.324 302.814 244.106Z" fill="#06033E"/>
<path opacity="0.4" d="M190.091 206.677L174.377 197.62C173.941 197.402 174.05 196.965 174.486 196.638L179.724 193.583C180.27 193.255 180.925 193.255 181.361 193.474L197.075 202.531C197.511 202.749 197.402 203.185 196.966 203.513L191.728 206.568C191.291 206.896 190.527 207.005 190.091 206.677Z" fill="#06033E"/>
<path opacity="0.4" d="M291.029 264.949L275.315 255.891C274.879 255.673 274.988 255.237 275.424 254.909L280.662 251.854C281.208 251.526 281.862 251.527 282.299 251.745L298.012 260.802C298.449 261.02 298.34 261.457 297.903 261.784L292.665 264.839C292.229 265.167 291.465 265.276 291.029 264.949Z" fill="#06033E"/>
<path opacity="0.4" d="M258.183 256.546L252.836 253.491C252.399 253.272 252.509 252.836 252.945 252.508L259.274 248.907C259.82 248.58 260.475 248.58 260.911 248.798L266.258 251.854C266.694 252.072 266.585 252.509 266.149 252.836L259.82 256.437C259.383 256.764 258.619 256.764 258.183 256.546Z" fill="#06033E"/>
<path opacity="0.4" d="M198.493 222.064L189.982 217.153C189.545 216.935 189.654 216.498 190.091 216.171L196.42 212.57C196.965 212.243 197.62 212.243 198.057 212.461L206.568 217.371C207.005 217.59 206.896 218.026 206.459 218.353L200.13 221.954C199.693 222.282 198.93 222.282 198.493 222.064Z" fill="#06033E"/>
<path opacity="0.4" d="M250.217 251.963L241.705 247.052C241.269 246.834 241.378 246.398 241.815 246.07L248.144 242.469C248.689 242.142 249.344 242.142 249.781 242.36L258.292 247.271C258.729 247.489 258.619 247.925 258.183 248.253L251.854 251.854C251.417 252.181 250.653 252.181 250.217 251.963Z" fill="#06033E"/>
<path opacity="0.4" d="M210.387 228.938L201.876 224.028C201.439 223.809 201.549 223.373 201.985 223.045L208.314 219.444C208.86 219.117 209.514 219.117 209.951 219.335L218.462 224.246C218.899 224.464 218.79 224.901 218.353 225.228L212.024 228.829C211.479 229.156 210.824 229.156 210.387 228.938Z" fill="#06033E"/>
<path opacity="0.4" d="M209.951 219.335L246.943 240.723C247.38 240.941 247.38 241.378 246.943 241.705L240.505 245.415C240.069 245.634 239.305 245.634 238.868 245.415L201.876 224.028L209.951 219.335Z" fill="#06033E"/>
<path opacity="0.4" d="M281.098 265.058L286.991 268.44C287.318 268.659 287.318 268.986 286.882 269.204L284.263 270.732C283.827 270.95 283.281 270.95 282.844 270.841L276.952 267.458C276.624 267.24 276.624 266.913 277.061 266.694L279.68 265.167C280.116 264.949 280.771 264.949 281.098 265.058Z" fill="#06033E"/>
<path opacity="0.4" d="M272.805 260.365L278.698 263.748C279.025 263.966 279.025 264.294 278.589 264.512L275.97 266.04C275.533 266.258 274.988 266.258 274.551 266.149L268.659 262.766C268.331 262.548 268.331 262.22 268.768 262.002L271.387 260.474C271.932 260.147 272.478 260.147 272.805 260.365Z" fill="#06033E"/>
<path opacity="0.4" d="M264.621 255.564L270.514 258.947C270.841 259.165 270.841 259.492 270.405 259.711L267.786 261.238C267.349 261.457 266.804 261.457 266.367 261.347L260.474 257.965C260.147 257.746 260.147 257.419 260.584 257.201L263.202 255.673C263.639 255.346 264.294 255.346 264.621 255.564Z" fill="#06033E"/>
<path opacity="0.4" d="M277.388 257.746L283.281 261.129C283.608 261.347 283.608 261.675 283.172 261.893L280.553 263.421C280.116 263.639 279.571 263.639 279.134 263.53L273.242 260.147C272.914 259.929 272.914 259.602 273.351 259.383L275.97 257.856C276.406 257.528 277.061 257.528 277.388 257.746Z" fill="#06033E"/>
</g>
<path d="M364.359 248.144L207.332 157.463C204.822 156.045 203.622 152.553 204.495 149.715L239.96 34.4826C240.833 31.6455 243.561 30.4451 246.07 31.8637L403.097 122.544C405.607 123.963 406.807 127.455 405.934 130.292L370.469 245.525C369.487 248.362 366.759 249.562 364.359 248.144Z" fill="url(#paint7_radial_74_437)"/>
<path d="M362.831 244.106L210.606 156.154C208.205 154.844 207.005 151.461 207.878 148.733L241.815 38.5201C242.688 35.7921 245.307 34.7008 247.598 36.0103L399.823 123.963C402.224 125.272 403.424 128.655 402.551 131.383L368.614 241.596C367.851 244.324 365.232 245.415 362.831 244.106Z" fill="url(#paint8_linear_74_437)"/>
<path opacity="0.4" d="M362.831 244.106L210.606 156.154C208.205 154.844 207.005 151.461 207.878 148.733L241.815 38.5201C242.688 35.7921 245.307 34.7008 247.598 36.0103L399.823 123.963C402.224 125.272 403.424 128.655 402.551 131.383L368.614 241.596C367.851 244.324 365.232 245.415 362.831 244.106Z" fill="#06033E"/>
<path opacity="0.4" d="M362.831 244.106L210.606 156.154C208.205 154.844 207.005 151.461 207.878 148.733L241.815 38.5201C242.688 35.7921 245.307 34.7008 247.598 36.0103L399.823 123.963C402.224 125.272 403.424 128.655 402.551 131.383L368.614 241.596C367.851 244.324 365.232 245.415 362.831 244.106Z" fill="#06033E"/>
<path opacity="0.5" d="M354.647 210.387L251.526 150.916C249.89 149.934 249.017 147.751 249.671 145.787L273.024 70.0566C273.569 68.2015 275.424 67.4376 276.952 68.3106L380.072 127.782C381.709 128.764 382.582 130.947 381.927 132.911L358.575 208.642C358.139 210.606 356.284 211.37 354.647 210.387Z" fill="#06033E"/>
<path d="M340.788 212.242L237.668 152.662C236.031 151.68 235.158 149.497 235.813 147.533L259.165 71.8024C259.711 69.9473 261.566 69.1835 263.093 70.0565L366.214 129.528C367.851 130.51 368.724 132.692 368.069 134.657L344.717 210.387C344.171 212.352 342.425 213.115 340.788 212.242Z" fill="url(#paint9_radial_74_437)"/>
<g opacity="0.5">
<path opacity="0.5" d="M340.788 212.242L237.668 152.662C236.031 151.68 235.158 149.497 235.813 147.533L259.165 71.8024C259.711 69.9473 261.566 69.1835 263.093 70.0565L366.214 129.528C367.851 130.51 368.724 132.692 368.069 134.657L344.717 210.387C344.171 212.352 342.425 213.115 340.788 212.242Z" fill="#06033E"/>
</g>
<path d="M366.104 129.746L262.984 70.2746C262.002 69.7289 260.911 69.7289 260.038 70.3837C260.474 70.3837 261.02 70.4928 261.566 70.711L364.686 130.183C366.323 131.165 367.196 133.347 366.541 135.311L343.189 211.042C342.971 211.697 342.643 212.242 342.098 212.679C343.189 212.679 344.171 211.915 344.607 210.605L367.96 134.875C368.614 132.911 367.741 130.619 366.104 129.746Z" fill="white"/>
<path opacity="0.4" d="M210.715 274.005C209.296 274.005 207.987 273.678 206.895 273.133L165.647 249.235C164.556 248.58 163.901 247.707 163.901 246.725C163.901 245.525 164.774 244.433 166.193 243.56L187.472 231.339C190.091 229.811 193.91 229.702 196.201 231.011L237.45 254.8C238.541 255.455 239.196 256.328 239.196 257.31C239.196 258.51 238.323 259.601 236.904 260.474L215.625 272.696C214.207 273.569 212.461 274.005 210.715 274.005ZM192.382 231.23C190.855 231.23 189.327 231.557 188.126 232.321L166.848 244.543C165.756 245.197 165.211 245.961 165.211 246.616C165.211 247.38 165.756 247.816 166.302 248.144L207.55 272.041C209.405 273.133 212.897 273.023 215.08 271.714L236.358 259.492C237.45 258.838 237.995 258.074 237.995 257.419C237.995 256.655 237.45 256.219 236.904 255.891L195.656 232.103C194.674 231.557 193.583 231.23 192.382 231.23Z" fill="#06033E"/>
<path d="M288.191 109.886L281.862 106.176C281.317 105.848 280.989 104.975 281.208 104.321C281.426 103.666 282.081 103.339 282.626 103.775L288.955 107.485C289.501 107.813 289.828 108.686 289.61 109.34C289.392 109.995 288.737 110.213 288.191 109.886Z" fill="white"/>
<path d="M303.359 118.725L293.975 113.269C293.429 112.941 293.102 112.068 293.32 111.414C293.538 110.759 294.193 110.431 294.739 110.868L304.123 116.324C304.669 116.651 304.996 117.524 304.778 118.179C304.56 118.725 303.905 119.052 303.359 118.725Z" fill="white"/>
<path d="M275.315 138.258L268.986 134.548C268.44 134.22 268.113 133.347 268.331 132.692C268.549 132.038 269.204 131.71 269.75 132.147L276.079 135.857C276.624 136.184 276.952 137.057 276.733 137.712C276.515 138.367 275.97 138.585 275.315 138.258Z" fill="white"/>
<path d="M288.846 146.114L279.462 140.658C278.916 140.331 278.589 139.458 278.807 138.803C279.025 138.148 279.68 137.821 280.225 138.258L289.61 143.714C290.156 144.041 290.483 144.914 290.265 145.569C290.046 146.223 289.501 146.442 288.846 146.114Z" fill="white"/>
<path d="M269.095 104.866L265.167 102.575C264.621 102.247 264.294 101.374 264.512 100.72C264.73 100.065 265.385 99.7375 265.93 100.174L269.859 102.466C270.404 102.793 270.732 103.666 270.514 104.321C270.295 104.975 269.641 105.194 269.095 104.866Z" fill="white"/>
<path d="M281.098 117.743L268.986 110.759C268.44 110.431 268.113 109.559 268.331 108.904C268.549 108.249 269.204 107.922 269.75 108.358L281.862 115.342C282.408 115.669 282.735 116.542 282.517 117.197C282.299 117.852 281.644 118.07 281.098 117.743Z" fill="white"/>
<path d="M269.859 123.199L265.93 120.907C265.385 120.58 265.057 119.707 265.276 119.052C265.494 118.397 266.149 118.07 266.694 118.507L270.623 120.798C271.168 121.126 271.496 121.998 271.277 122.653C271.059 123.308 270.404 123.526 269.859 123.199Z" fill="white"/>
<path d="M290.374 158.882L279.789 152.771C279.243 152.443 278.916 151.57 279.134 150.916C279.352 150.261 280.007 149.934 280.553 150.37L291.138 156.481C291.683 156.808 292.011 157.681 291.792 158.336C291.574 158.991 290.919 159.209 290.374 158.882Z" fill="white"/>
<path d="M265.385 132.583L262.875 131.055C262.329 130.728 262.002 129.855 262.22 129.2C262.438 128.546 263.093 128.218 263.639 128.655L266.149 130.183C266.694 130.51 267.022 131.383 266.803 132.038C266.585 132.583 266.039 132.911 265.385 132.583Z" fill="white"/>
<path d="M262.984 143.059L259.82 141.204C259.274 140.876 258.947 140.003 259.165 139.349C259.383 138.694 260.038 138.367 260.583 138.803L263.748 140.658C264.294 140.986 264.621 141.859 264.403 142.513C264.185 143.168 263.53 143.386 262.984 143.059Z" fill="white"/>
<path d="M275.315 150.261L266.913 145.46C266.367 145.132 266.04 144.259 266.258 143.605C266.476 142.95 267.131 142.622 267.676 143.059L276.079 147.86C276.624 148.188 276.952 149.061 276.734 149.715C276.515 150.261 275.861 150.588 275.315 150.261Z" fill="white"/>
<path d="M264.294 149.824L258.292 146.333C257.746 146.005 257.419 145.132 257.637 144.478C257.855 143.823 258.51 143.495 259.056 143.932L265.058 147.424C265.603 147.751 265.931 148.624 265.712 149.279C265.494 149.934 264.839 150.152 264.294 149.824Z" fill="white"/>
<path d="M299.431 164.229L295.612 162.046C295.066 161.719 294.739 160.846 294.957 160.191C295.175 159.536 295.83 159.209 296.375 159.646L300.195 161.828C300.74 162.155 301.068 163.028 300.849 163.683C300.74 164.229 300.086 164.556 299.431 164.229Z" fill="white"/>
<path d="M284.699 131.71L274.115 125.599C273.569 125.272 273.242 124.399 273.46 123.744C273.678 123.09 274.333 122.762 274.878 123.199L285.463 129.31C286.009 129.637 286.336 130.51 286.118 131.165C285.9 131.819 285.245 132.147 284.699 131.71Z" fill="white"/>
<path d="M285.9 126.472L267.349 115.779C266.803 115.451 266.476 114.578 266.694 113.923C266.913 113.269 267.567 112.941 268.113 113.378L286.664 124.072C287.209 124.399 287.537 125.272 287.318 125.927C287.209 126.582 286.555 126.909 285.9 126.472Z" fill="#E8975B"/>
<path d="M274.988 132.147L264.403 126.036C263.857 125.708 263.53 124.835 263.748 124.181C263.966 123.526 264.621 123.199 265.167 123.635L275.751 129.746C276.297 130.073 276.624 130.946 276.406 131.601C276.188 132.256 275.533 132.474 274.988 132.147Z" fill="#E8975B"/>
<path d="M292.774 136.402L288.955 134.22C288.41 133.893 288.082 133.02 288.3 132.365C288.519 131.71 289.173 131.383 289.719 131.819L293.538 134.002C294.084 134.329 294.411 135.202 294.193 135.857C293.975 136.512 293.32 136.73 292.774 136.402Z" fill="#E8975B"/>
<path d="M332.059 135.202L309.143 121.998C308.597 121.671 308.27 120.798 308.488 120.143C308.706 119.489 309.361 119.161 309.907 119.598L332.822 132.802C333.368 133.129 333.695 134.002 333.477 134.657C333.259 135.311 332.604 135.53 332.059 135.202Z" fill="#E8975B"/>
<path d="M274.115 143.605L261.347 136.184C260.802 135.857 260.474 134.984 260.693 134.329C260.911 133.674 261.566 133.347 262.111 133.784L274.878 141.204C275.424 141.531 275.751 142.404 275.533 143.059C275.315 143.605 274.66 143.932 274.115 143.605Z" fill="#F8359E"/>
<path d="M276.079 102.902L266.694 97.446C266.149 97.1186 265.821 96.2456 266.04 95.5909C266.258 94.9362 266.913 94.6088 267.458 95.0453L276.843 100.501C277.388 100.829 277.716 101.702 277.497 102.356C277.279 103.011 276.625 103.229 276.079 102.902Z" fill="#F8359E"/>
<path d="M262.33 154.626L251.417 148.297C250.872 147.969 250.544 147.096 250.763 146.442C250.981 145.787 251.636 145.46 252.181 145.896L263.093 152.225C263.639 152.553 263.966 153.426 263.748 154.08C263.53 154.735 262.875 154.953 262.33 154.626Z" fill="#E8975B"/>
<path d="M334.568 123.417L329.876 120.689C329.439 120.471 329.221 119.816 329.33 119.379C329.439 118.943 329.985 118.725 330.422 118.943L335.114 121.671C335.55 121.889 335.768 122.544 335.659 122.98C335.441 123.526 335.005 123.744 334.568 123.417Z" fill="white"/>
<path d="M343.516 128.546L338.824 125.818C338.388 125.599 338.169 124.945 338.278 124.508C338.388 124.072 338.933 123.853 339.37 124.072L344.062 126.8C344.498 127.018 344.717 127.673 344.607 128.109C344.389 128.655 343.953 128.873 343.516 128.546Z" fill="white"/>
<path d="M352.355 133.784L347.663 131.055C347.226 130.837 347.008 130.182 347.117 129.746C347.226 129.309 347.772 129.091 348.208 129.309L352.9 132.038C353.337 132.256 353.555 132.911 353.446 133.347C353.228 133.783 352.791 134.002 352.355 133.784Z" fill="white"/>
<path d="M356.72 136.293L356.611 136.184C356.174 135.966 355.956 135.311 356.065 134.875C356.174 134.438 356.72 134.22 357.156 134.438L357.265 134.547C357.702 134.766 357.92 135.42 357.811 135.857C357.593 136.293 357.156 136.511 356.72 136.293Z" fill="#F8359E"/>
<path d="M116.324 190.745C113.378 190.745 110.432 189.982 107.813 188.454L76.6037 170.449C75.2942 169.685 74.4213 168.266 74.4213 166.739C74.4213 165.211 75.1851 163.792 76.6037 163.028L107.813 145.023C113.05 141.968 119.598 141.968 124.836 145.023L156.045 163.028C157.354 163.792 158.227 165.211 158.227 166.739C158.227 168.266 157.463 169.685 156.045 170.449L124.836 188.454C122.217 189.982 119.27 190.745 116.324 190.745ZM108.795 186.708C113.378 189.436 119.161 189.436 123.854 186.708L155.062 168.703C155.826 168.266 156.154 167.502 156.154 166.739C156.154 165.975 155.717 165.211 155.062 164.774L123.854 146.769C119.27 144.041 113.487 144.041 108.795 146.769L77.5858 164.774C76.822 165.211 76.4946 165.975 76.4946 166.739C76.4946 167.612 76.9311 168.266 77.5858 168.703L108.795 186.708Z" fill="url(#paint10_linear_74_437)"/>
<path opacity="0.6" d="M116.215 179.506C128.027 179.506 137.603 173.985 137.603 167.175C137.603 160.365 128.027 154.844 116.215 154.844C104.403 154.844 94.8269 160.365 94.8269 167.175C94.8269 173.985 104.403 179.506 116.215 179.506Z" fill="#020230"/>
<path d="M147.969 79.0045H86.9702L92.6446 145.132C92.6446 148.843 95.0453 152.444 99.9557 155.281C109.668 160.846 125.381 160.846 135.093 155.281C139.894 152.444 142.404 148.843 142.404 145.132L147.969 79.0045Z" fill="url(#paint11_radial_74_437)"/>
<path opacity="0.4" d="M147.969 79.0045H86.9702L87.9523 89.9167C89.3709 91.6627 91.226 93.4086 93.6267 95.0455C105.303 102.793 124.508 104.321 137.712 98.7556L135.639 147.097C135.53 149.17 134.875 151.243 133.456 152.88C131.492 155.172 127.673 157.9 120.362 159.537C125.709 159.209 130.946 157.791 135.093 155.39C139.894 152.553 142.404 148.952 142.404 145.242L146.987 92.2083L147.969 79.0045Z" fill="#06033E"/>
<path opacity="0.4" d="M117.415 96.5731C134.29 96.5731 147.969 88.7073 147.969 79.0044C147.969 69.3015 134.29 61.4358 117.415 61.4358C100.541 61.4358 86.8611 69.3015 86.8611 79.0044C86.8611 88.7073 100.541 96.5731 117.415 96.5731Z" fill="#06033E"/>
<path opacity="0.4" d="M117.415 87.9525C131.939 87.9525 143.714 81.1616 143.714 72.7845C143.714 64.4075 131.939 57.6166 117.415 57.6166C102.891 57.6166 91.1167 64.4075 91.1167 72.7845C91.1167 81.1616 102.891 87.9525 117.415 87.9525Z" fill="#06033E"/>
<path d="M149.715 78.1315C149.715 78.0224 149.715 78.0224 149.715 78.0224L149.17 72.1298V72.2389C148.952 67.7649 145.787 63.2909 139.894 59.9081C127.455 52.7061 107.376 52.7061 95.0453 59.9081C88.9345 63.4 85.879 67.9832 85.7699 72.5663L85.2243 77.8041C85.2243 77.9133 85.2243 78.1315 85.2243 78.2406V78.3498C84.8969 83.3694 88.0615 88.4981 94.7179 92.3174C107.376 99.6285 127.891 99.6285 140.44 92.3174C146.987 88.2799 150.152 83.1511 149.715 78.1315Z" fill="url(#paint12_linear_74_437)"/>
<path d="M117.415 87.9525C131.939 87.9525 143.714 81.1616 143.714 72.7845C143.714 64.4075 131.939 57.6166 117.415 57.6166C102.891 57.6166 91.1167 64.4075 91.1167 72.7845C91.1167 81.1616 102.891 87.9525 117.415 87.9525Z" fill="url(#paint13_linear_74_437)"/>
<path d="M116.215 87.9525C130.739 87.9525 142.513 81.1616 142.513 72.7845C142.513 64.4075 130.739 57.6166 116.215 57.6166C101.691 57.6166 89.9165 64.4075 89.9165 72.7845C89.9165 81.1616 101.691 87.9525 116.215 87.9525Z" fill="url(#paint14_linear_74_437)"/>
<path opacity="0.4" d="M101.92 64.2729C112.177 58.3803 128.873 58.3803 139.131 64.2729C139.24 64.382 139.349 64.382 139.458 64.4911C138.476 63.6182 137.275 62.7452 135.966 61.9813C125.709 56.0887 109.013 56.0887 98.7554 61.9813C88.607 67.8739 88.4979 77.2584 98.428 83.2601C91.8807 77.3675 92.9719 69.4016 101.92 64.2729Z" fill="#06033E"/>
<path d="M98.8645 64.6003C109.122 58.7077 125.818 58.7077 136.075 64.6003C140.658 67.2192 143.168 70.602 143.714 73.9848C144.368 69.6199 141.859 65.255 136.075 61.9813C125.818 56.0887 109.122 56.0887 98.8645 61.9813C93.1902 65.255 90.5713 69.729 91.226 73.9848C91.7716 70.602 94.2814 67.3283 98.8645 64.6003Z" fill="url(#paint15_linear_74_437)"/>
<path d="M140.003 59.9081C127.673 52.5969 107.485 52.4878 94.9359 59.4716C82.3869 66.5645 82.3869 78.2406 94.7177 85.4426C107.048 92.7538 127.236 92.8629 139.785 85.8791C152.334 78.8953 152.443 67.2193 140.003 59.9081ZM135.966 83.4784C132.583 85.4426 128.436 86.7521 123.962 87.4068L123.526 85.8791C123.308 85.2244 122.762 84.7879 122.107 84.7879H112.614C111.959 84.7879 111.413 85.2244 111.195 85.8791L110.759 87.4068C106.394 86.7521 102.247 85.4426 98.7552 83.4784C88.4977 77.5859 88.4977 67.9831 98.7552 61.9814C109.013 56.0888 125.708 56.0888 135.966 61.9814C146.223 67.9831 146.223 77.5859 135.966 83.4784Z" fill="url(#paint16_radial_74_437)"/>
<path d="M135.966 60.8901C125.709 54.9976 109.013 54.9976 98.7555 60.8901C93.4085 63.9456 90.7896 68.0922 91.1169 72.1297C91.3352 68.4196 93.9541 64.8185 98.7555 61.9814C109.013 56.0888 125.709 56.0888 135.966 61.9814C140.877 64.8185 143.386 68.4196 143.605 72.1297C143.932 68.0922 141.422 64.0547 135.966 60.8901Z" fill="white"/>
<path d="M139.785 84.7878C127.236 91.8807 107.158 91.6625 94.7179 84.3513C88.8253 80.8594 85.7699 76.3854 85.5517 71.9114C85.3334 76.7127 88.3888 81.7324 94.7179 85.4425C107.049 92.7537 127.236 92.8628 139.785 85.879C146.333 82.1688 149.497 77.2584 149.17 72.2387C149.061 76.931 145.896 81.405 139.785 84.7878Z" fill="white"/>
<path d="M120.252 88.2798H114.578C114.142 88.2798 113.814 87.9524 113.814 87.5159V87.4068C113.814 86.9703 114.142 86.6429 114.578 86.6429H120.252C120.689 86.6429 121.016 86.9703 121.016 87.4068V87.5159C120.907 87.9524 120.58 88.2798 120.252 88.2798Z" fill="#0C0A78"/>
<path d="M120.252 86.7521H114.578C114.142 86.7521 113.814 87.0794 113.814 87.5159V87.6251C113.814 87.7342 113.814 87.7342 113.814 87.8433C113.923 87.5159 114.142 87.2977 114.469 87.2977H120.143C120.471 87.2977 120.689 87.5159 120.798 87.8433C120.798 87.7342 120.798 87.7342 120.798 87.6251V87.5159C120.907 87.0794 120.58 86.7521 120.252 86.7521Z" fill="url(#paint17_linear_74_437)"/>
<path d="M118.288 138.257C117.633 140.876 114.905 142.404 112.286 141.749C109.668 141.095 108.14 138.367 108.795 135.748C109.449 133.129 111.959 132.365 114.578 133.129C117.197 133.783 118.943 135.638 118.288 138.257Z" fill="#E8975B"/>
<path d="M122.107 133.129C121.125 134.111 119.816 134.002 119.052 133.129C118.179 132.256 118.07 131.055 119.052 130.073C120.034 129.091 121.889 128.655 122.762 129.528C123.635 130.292 123.089 132.147 122.107 133.129Z" fill="#E8975B"/>
<path d="M116.979 129.091C116.76 130.401 115.669 131.056 114.469 130.837C113.269 130.619 112.505 129.637 112.723 128.328C112.941 127.018 114.251 125.49 115.342 125.709C116.542 125.927 117.306 127.673 116.979 129.091Z" fill="#E8975B"/>
<path d="M110.759 128.437C111.304 129.746 110.65 130.837 109.558 131.274C108.467 131.71 107.267 131.383 106.721 130.073C106.176 128.764 106.503 126.909 107.594 126.472C108.685 126.036 110.213 127.127 110.759 128.437Z" fill="#E8975B"/>
<path opacity="0.5" d="M119.38 87.516C119.38 87.516 136.403 81.8416 129.528 62.1997C122.653 42.5577 109.231 36.556 114.578 20.8424C114.578 20.8424 106.067 33.5006 114.033 50.7418C121.998 67.874 123.744 65.9098 123.635 74.2031C123.526 83.9149 115.669 87.516 115.669 87.516H119.38Z" fill="white"/>
<path opacity="0.5" d="M120.907 23.5704C120.907 23.5704 119.161 11.7852 130.183 0C130.183 0 120.471 21.7153 123.635 32.4092C123.635 32.5184 121.016 25.6437 120.907 23.5704Z" fill="white"/>
<defs>
<linearGradient id="paint0_linear_74_437" x1="442.933" y1="293.981" x2="478.502" y2="293.981" gradientUnits="userSpaceOnUse">
<stop stop-color="#E95F8D"/>
<stop offset="1" stop-color="#43188D"/>
</linearGradient>
<linearGradient id="paint1_linear_74_437" x1="394.161" y1="245.208" x2="453.842" y2="245.208" gradientUnits="userSpaceOnUse">
<stop stop-color="#E95F8D"/>
<stop offset="1" stop-color="#43188D"/>
</linearGradient>
<linearGradient id="paint2_linear_74_437" x1="0.0121258" y1="265.177" x2="59.6934" y2="265.177" gradientUnits="userSpaceOnUse">
<stop stop-color="#E95F8D"/>
<stop offset="1" stop-color="#43188D"/>
</linearGradient>
<linearGradient id="paint3_linear_74_437" x1="69.5758" y1="261.415" x2="388.603" y2="261.415" gradientUnits="userSpaceOnUse">
<stop stop-color="#E95F8D"/>
<stop offset="1" stop-color="#43188D"/>
</linearGradient>
<radialGradient id="paint4_radial_74_437" cx="0" cy="0" r="1" gradientUnits="userSpaceOnUse" gradientTransform="translate(245.793 25.2151) scale(243.665)">
<stop stop-color="#E39A65"/>
<stop offset="0.4742" stop-color="#A92FFB"/>
<stop offset="0.5947" stop-color="#891CFB"/>
<stop offset="0.7421" stop-color="#6507FA"/>
<stop offset="0.8016" stop-color="#0D0C6F"/>
</radialGradient>
<radialGradient id="paint5_radial_74_437" cx="0" cy="0" r="1" gradientUnits="userSpaceOnUse" gradientTransform="translate(96.7622 220.896) scale(266.446)">
<stop stop-color="#E39A65"/>
<stop offset="0.4742" stop-color="#A92FFB"/>
<stop offset="0.5679" stop-color="#891CFB"/>
<stop offset="0.6825" stop-color="#6507FA"/>
<stop offset="0.7381" stop-color="#0D0C6F"/>
</radialGradient>
<radialGradient id="paint6_radial_74_437" cx="0" cy="0" r="1" gradientUnits="userSpaceOnUse" gradientTransform="translate(121.268 167.416) scale(238.934)">
<stop stop-color="#E39A65"/>
<stop offset="0.4742" stop-color="#A92FFB"/>
<stop offset="0.5875" stop-color="#891CFB"/>
<stop offset="0.7262" stop-color="#6507FA"/>
<stop offset="1" stop-color="#3919BB"/>
</radialGradient>
<radialGradient id="paint7_radial_74_437" cx="0" cy="0" r="1" gradientUnits="userSpaceOnUse" gradientTransform="translate(180.791 76.0414) scale(243.714)">
<stop stop-color="#E39A65"/>
<stop offset="0.4742" stop-color="#A92FFB"/>
<stop offset="0.5875" stop-color="#891CFB"/>
<stop offset="0.7262" stop-color="#6507FA"/>
<stop offset="1" stop-color="#3919BB"/>
</radialGradient>
<linearGradient id="paint8_linear_74_437" x1="207.578" y1="140.017" x2="402.87" y2="140.017" gradientUnits="userSpaceOnUse">
<stop stop-color="#3919BB"/>
<stop offset="1" stop-color="#6507FA"/>
</linearGradient>
<radialGradient id="paint9_radial_74_437" cx="0" cy="0" r="1" gradientUnits="userSpaceOnUse" gradientTransform="translate(91.8222 23.9976) scale(379.578)">
<stop stop-color="#E39A65"/>
<stop offset="0.4742" stop-color="#A92FFB"/>
<stop offset="0.5875" stop-color="#891CFB"/>
<stop offset="0.7262" stop-color="#6507FA"/>
<stop offset="1" stop-color="#3919BB"/>
</radialGradient>
<linearGradient id="paint10_linear_74_437" x1="74.4383" y1="166.754" x2="158.232" y2="166.754" gradientUnits="userSpaceOnUse">
<stop stop-color="#E95F8D"/>
<stop offset="1" stop-color="#43188D"/>
</linearGradient>
<radialGradient id="paint11_radial_74_437" cx="0" cy="0" r="1" gradientUnits="userSpaceOnUse" gradientTransform="translate(81.8592 98.3933) scale(180.432)">
<stop stop-color="#E39A65"/>
<stop offset="0.1528" stop-color="#A92FFB"/>
<stop offset="0.4087" stop-color="#3919BB"/>
<stop offset="0.9311" stop-color="#3919BB"/>
</radialGradient>
<linearGradient id="paint12_linear_74_437" x1="85.0526" y1="76.0414" x2="149.772" y2="76.0414" gradientUnits="userSpaceOnUse">
<stop stop-color="#E39A65"/>
<stop offset="0.252" stop-color="#A92FFB"/>
<stop offset="0.5556" stop-color="#3919BB"/>
</linearGradient>
<linearGradient id="paint13_linear_74_437" x1="91.1208" y1="72.7529" x2="143.701" y2="72.7529" gradientUnits="userSpaceOnUse">
<stop stop-color="#4F1FEC"/>
<stop offset="1" stop-color="#A92FFB"/>
</linearGradient>
<linearGradient id="paint14_linear_74_437" x1="89.8735" y1="72.7529" x2="142.453" y2="72.7529" gradientUnits="userSpaceOnUse">
<stop stop-color="#4F1FEC"/>
<stop offset="1" stop-color="#A92FFB"/>
</linearGradient>
<linearGradient id="paint15_linear_74_437" x1="91.1254" y1="65.8224" x2="157.419" y2="65.8224" gradientUnits="userSpaceOnUse">
<stop stop-color="#131060"/>
<stop offset="0.1857" stop-color="#141062"/>
<stop offset="0.2823" stop-color="#19106A"/>
<stop offset="0.3584" stop-color="#221078"/>
<stop offset="0.4238" stop-color="#2E0F8B"/>
<stop offset="0.4823" stop-color="#3E0FA3"/>
<stop offset="0.5359" stop-color="#510EC2"/>
<stop offset="0.5847" stop-color="#680DE5"/>
<stop offset="0.6071" stop-color="#740DF8"/>
<stop offset="0.6179" stop-color="#7A14F0"/>
<stop offset="0.6826" stop-color="#9B3CC3"/>
<stop offset="0.7477" stop-color="#B75D9D"/>
<stop offset="0.8123" stop-color="#CC7680"/>
<stop offset="0.8762" stop-color="#DC886C"/>
<stop offset="0.9391" stop-color="#E5935F"/>
<stop offset="1" stop-color="#E8975B"/>
</linearGradient>
<radialGradient id="paint16_radial_74_437" cx="0" cy="0" r="1" gradientUnits="userSpaceOnUse" gradientTransform="translate(76.9743 57.7306) scale(118.031)">
<stop stop-color="#E39A65"/>
<stop offset="0.252" stop-color="#A92FFB"/>
<stop offset="0.7357" stop-color="#3919BB"/>
</radialGradient>
<linearGradient id="paint17_linear_74_437" x1="113.25" y1="87.2181" x2="122.421" y2="87.2181" gradientUnits="userSpaceOnUse">
<stop stop-color="#131060"/>
<stop offset="0.1857" stop-color="#141062"/>
<stop offset="0.2823" stop-color="#19106A"/>
<stop offset="0.3584" stop-color="#221078"/>
<stop offset="0.4238" stop-color="#2E0F8B"/>
<stop offset="0.4823" stop-color="#3E0FA3"/>
<stop offset="0.5359" stop-color="#510EC2"/>
<stop offset="0.5847" stop-color="#680DE5"/>
<stop offset="0.6071" stop-color="#740DF8"/>
<stop offset="0.6179" stop-color="#7A14F0"/>
<stop offset="0.6826" stop-color="#9B3CC3"/>
<stop offset="0.7477" stop-color="#B75D9D"/>
<stop offset="0.8123" stop-color="#CC7680"/>
<stop offset="0.8762" stop-color="#DC886C"/>
<stop offset="0.9391" stop-color="#E5935F"/>
<stop offset="1" stop-color="#E8975B"/>
</linearGradient>
</defs>
</svg>
